<?xml version="1.0" encoding="UTF-8" standalone="no"?>
<!-- Created with Inkscape (http://www.inkscape.org/) -->

<svg
   xmlns:dc="http://purl.org/dc/elements/1.1/"
   xmlns:cc="http://creativecommons.org/ns#"
   xmlns:rdf="http://www.w3.org/1999/02/22-rdf-syntax-ns#"
   xmlns:svg="http://www.w3.org/2000/svg"
   xmlns="http://www.w3.org/2000/svg"
   xmlns:xlink="http://www.w3.org/1999/xlink"
   xmlns:sodipodi="http://sodipodi.sourceforge.net/DTD/sodipodi-0.dtd"
   xmlns:inkscape="http://www.inkscape.org/namespaces/inkscape"
   width="666.07086"
   height="520.47449"
   id="svg3121"
   version="1.1"
   inkscape:version="0.48.4 r9939"
   sodipodi:docname="thoughBubble.svg">
  <defs
     id="defs3123">
    <linearGradient
       inkscape:collect="always"
       xlink:href="#linearGradient5669"
       id="linearGradient5679"
       gradientUnits="userSpaceOnUse"
       x1="475.81088"
       y1="468.63962"
       x2="652.25073"
       y2="468.63962" />
    <linearGradient
       inkscape:collect="always"
       id="linearGradient5669">
      <stop
         style="stop-color:#000000;stop-opacity:1;"
         offset="0"
         id="stop5671" />
      <stop
         style="stop-color:#000000;stop-opacity:0;"
         offset="1"
         id="stop5673" />
    </linearGradient>
  </defs>
  <sodipodi:namedview
     id="base"
     pagecolor="#ffffff"
     bordercolor="#666666"
     borderopacity="1.0"
     inkscape:pageopacity="0.0"
     inkscape:pageshadow="2"
     inkscape:zoom="0.35"
     inkscape:cx="554.49276"
     inkscape:cy="166.58351"
     inkscape:document-units="px"
     inkscape:current-layer="layer1"
     showgrid="false"
     fit-margin-top="0"
     fit-margin-left="0"
     fit-margin-right="0"
     fit-margin-bottom="0"
     inkscape:window-width="1360"
     inkscape:window-height="705"
     inkscape:window-x="-8"
     inkscape:window-y="-8"
     inkscape:window-maximized="1" />
  <metadata
     id="metadata3126">
    <rdf:RDF>
      <cc:Work
         rdf:about="">
        <dc:format>image/svg+xml</dc:format>
        <dc:type
           rdf:resource="http://purl.org/dc/dcmitype/StillImage" />
        <dc:title></dc:title>
      </cc:Work>
    </rdf:RDF>
  </metadata>
  <g
     inkscape:label="Layer 1"
     inkscape:groupmode="layer"
     id="layer1"
     transform="translate(-57.978208,-135.49425)">
    <g
       id="g3529">
      <g
         transform="matrix(0.97136648,0,0,0.95938513,-47.451759,49.348017)"
         id="g8150">
        <path
           style="fill:#de8787;fill-opacity:1;stroke:#000000;stroke-width:0.99663073px;stroke-linecap:butt;stroke-linejoin:miter;stroke-opacity:1"
           d="m 384.7791,316.91815 c -7.31355,3.10098 -12.63617,13.07601 -14.52634,23.05152 -3.83571,13.58527 -7.15028,27.41407 -9.51998,41.45167 -3.30274,19.1923 -4.89798,38.68229 -4.80822,57.90502 -0.43273,40.40514 -1.08864,80.84387 -1.15357,121.19689 0.12775,18.47588 0.69912,37.2383 4.89948,54.27962 1.78613,6.04917 6.50153,8.56345 10.93245,9.56763 5.19159,1.12974 10.5783,0.8561 15.86137,1.31029 29.97157,1.17522 60.66379,-6.15082 90.10829,-20.2825 8.96026,-4.0419 18.24122,-7.75666 26.26401,-15.50017 4.51348,-5.9977 5.48691,-14.79241 5.97524,-22.61212 2.95558,-39.64564 0.0798,-78.63029 -3.46247,-116.98972 -2.58666,-27.01379 -4.82864,-54.14375 -7.37567,-81.16945 -1.64072,-14.49399 -3.30582,-29.24794 -7.69672,-42.28956 -2.86712,-7.4785 -8.00692,-13.40258 -14.39197,-14.1014 -7.91293,-1.61646 -16.16305,-0.32266 -24.15319,-1.34668 -19.22406,-1.25119 -38.67747,-2.59671 -58.2004,2.5447 -2.93902,0.73141 -5.86478,1.71989 -8.75231,2.98426 z"
           id="path3053-2"
           inkscape:connector-curvature="0" />
        <path
           style="fill:#ffccaa;stroke:#000000;stroke-width:0.99663073px;stroke-linecap:butt;stroke-linejoin:miter;stroke-opacity:1"
           d="m 371.90718,389.40809 119.20525,-12.62723 -1.08671,81.36507 -123.98702,9.70726 z"
           id="path3121-6"
           inkscape:connector-curvature="0" />
        <flowRoot
           xml:space="preserve"
           id="flowRoot3081-0"
           style="font-size:40px;font-style:normal;font-weight:normal;line-height:125%;letter-spacing:0px;word-spacing:0px;fill:#000000;fill-opacity:1;stroke:#000000;stroke-opacity:1;font-family:Sans"
           transform="matrix(0.56624001,-0.0469215,-0.15742533,2.0763724,287.5537,-492.00782)"><flowRegion
             id="flowRegion3083-4"
             style="stroke:url(#linearGradient5679)"><rect
               id="rect3085-9"
               width="196.97975"
               height="42.426407"
               x="285.87317"
               y="430.10822"
               style="stroke:#000000;stroke-opacity:1" /></flowRegion><flowPara
             id="flowPara3087-4"
             style="stroke:#000000;stroke-opacity:1">Fertilizer 2</flowPara></flowRoot>        <flowRoot
           xml:space="preserve"
           id="flowRoot4172"
           style="font-size:40px;font-style:normal;font-weight:normal;line-height:125%;letter-spacing:0px;word-spacing:0px;fill:#000000;fill-opacity:1;stroke:none;font-family:Sans"
           transform="matrix(0.45714419,-0.04739074,0.05177169,0.49940399,239.32811,184.10642)"><flowRegion
             id="flowRegion4174"><rect
               id="rect4176"
               width="289.91379"
               height="101.01525"
               x="197.9899"
               y="643.25043" /></flowRegion><flowPara
             id="flowPara4178"
             style="text-align:center;text-anchor:middle">It's What Plants </flowPara><flowPara
             id="flowPara4180"
             style="text-align:center;text-anchor:middle">Crave</flowPara></flowRoot>        <g
           id="g8144"
           transform="matrix(0.23864313,0,0,0.24350865,452.85903,467.26237)">
          <path
             transform="matrix(2.3253961,0,0,2.2776716,-726.49197,-1034.8203)"
             inkscape:transform-center-y="5.7138274"
             inkscape:transform-center-x="10.148436"
             d="m 271.73103,708.9103 c -6.08368,4.73175 -15.76546,-27.32448 -22.24879,-23.15711 -6.48334,4.16736 18.65782,26.28659 11.82702,29.85602 -6.8308,3.56943 -10.63313,-29.70039 -17.75639,-26.75764 -7.12326,2.94275 13.66433,29.19564 6.30596,31.48802 -7.35837,2.29238 -5.15904,-31.12171 -12.69327,-29.49816 -7.53424,1.62355 8.23165,31.16632 0.58221,32.10797 -7.64944,0.94165 0.48087,-31.54275 -7.22218,-31.29058 -7.70306,0.25216 2.5344,32.13528 -5.16024,31.69594 -7.69465,-0.43935 6.10531,-30.94999 -1.51898,-32.07731 -7.62429,-1.12731 -3.2443,32.07139 -10.73684,30.26518 -7.49254,-1.80621 11.53353,-29.36246 4.23306,-31.83303 -7.30047,-2.47057 -8.91873,30.9767 -15.96835,27.86166 -7.04963,-3.11503 16.59105,-26.8312 9.84904,-30.56562 -6.74202,-3.73441 -14.30651,28.88639 -20.68663,24.56266 -6.38012,-4.32373 21.11533,-23.43757 15.14847,-28.3158 -5.96687,-4.87824 -19.23446,25.86765 -24.74002,20.47418 -5.50556,-5.39346 24.96093,-19.29063 19.961,-25.15589 -4.99992,-5.86526 -23.54419,22.0175 -27.99824,15.72766 -4.45404,-6.28984 28.00428,-14.52368 24.13198,-21.18746 -3.87229,-6.66377 -27.0972,17.4597 -30.35657,10.47563 -3.25937,-6.98406 30.14753,-9.28991 27.52733,-16.53803 -2.6202,-7.24811 -29.77929,12.34072 -31.73923,4.88691 -1.95994,-7.45381 31.32183,-3.75758 30.03794,-11.35707 -1.28389,-7.59948 -31.50425,6.8251 -32.10176,-0.85888 -0.59751,-7.68399 31.48942,1.89554 31.5831,-5.81107 0.0937,-7.70661 -32.21663,1.09011 -31.43251,-6.57708 0.78412,-7.66719 30.64491,7.48773 32.11315,-0.0783 1.46824,-7.56604 -31.89354,-4.67991 -29.753,-12.08387 2.14055,-7.40397 28.81545,12.83926 31.61107,5.65698 2.79561,-7.18228 -30.54537,-10.29951 -27.1172,-17.20228 3.42818,-6.90277 26.05984,17.77812 30.09297,11.21044 4.03313,-6.56768 -28.21544,-15.58808 -23.60982,-21.7678 4.60562,-6.17971 22.46663,22.14559 27.60765,16.4036 5.14103,-5.74199 -24.97865,-20.37564 -19.34361,-25.63368 5.63504,-5.25804 18.15134,25.80127 24.23502,21.06952 6.08368,-4.73175 -20.93903,-24.5083 -14.45569,-28.67566 6.48334,-4.16737 13.25265,28.62768 20.08345,25.05825 6.83079,-3.56943 -16.2264,-27.85325 -9.10314,-30.796 7.12326,-2.94275 7.928,30.53397 15.28637,28.24159 7.35837,-2.29237 -10.99225,-30.30297 -3.45801,-31.92652 7.53423,-1.62355 2.34854,31.45888 9.99798,30.51723 7.64944,-0.94165 -5.40479,-31.77874 2.29826,-32.0309 7.70306,-0.25217 -3.3064,31.37266 4.38825,31.81201 7.69465,0.43934 0.35638,-32.2331 7.98067,-31.10579 7.62429,1.12732 -8.85507,30.27812 -1.36253,32.08433 7.49254,1.80622 6.10609,-31.65146 13.40657,-29.18089 7.30047,2.47057 -14.11914,28.2104 -7.06951,31.32543 7.04962,3.11503 11.65955,-30.05253 18.40156,-26.31811 6.74202,3.73442 -18.92939,25.23598 -12.54927,29.55971 6.38013,4.32373 16.83827,-27.48768 22.80513,-22.60944 5.96686,4.87823 -23.13125,21.45045 -17.62569,26.84391 5.50556,5.39347 21.47578,-24.03935 26.47571,-18.17408 4.99993,5.86526 -26.58964,16.97549 -22.1356,23.26533 4.45404,6.28984 25.42305,-19.81838 29.29534,-13.1546 3.8723,6.66378 -29.19343,11.95492 -25.93406,18.93899 3.25937,6.98406 28.5532,-14.96043 31.1734,-7.71232 2.6202,7.24812 -30.85891,6.55012 -28.89898,14.00393 1.95994,7.4538 30.76563,-9.62164 32.04952,-2.02215 1.2839,7.59949 -31.53256,0.93478 -30.93505,8.61876 0.59751,7.68398 31.98922,-3.9736 31.89554,3.73301 -0.0937,7.70661 -31.19274,-4.7106 -31.97686,2.95659 -0.78412,7.66719 32.18465,1.80215 30.71641,9.36819 -1.46824,7.56603 -29.85035,-10.20458 -31.99089,-2.80062 -2.14055,7.40396 31.34564,7.51998 28.55002,14.70227 -2.79561,7.18228 -27.54854,-15.37058 -30.97671,-8.46781 -3.42818,6.90277 29.49916,12.99612 25.46602,19.5638 -4.03313,6.56768 -24.3613,-20.04254 -28.96692,-13.86283 -4.60562,6.17972 26.70455,18.05454 21.56353,23.79654 -5.14103,5.74199 -20.39108,-24.07033 -26.02612,-18.81229 -5.63503,5.25804 23.05164,22.53268 16.96796,27.26443 z"
             inkscape:randomized="0"
             inkscape:rounded="0.24"
             inkscape:flatsided="false"
             sodipodi:arg2="0.99951295"
             sodipodi:arg1="0.90975316"
             sodipodi:r2="37.316734"
             sodipodi:r1="69.105064"
             sodipodi:cy="654.36206"
             sodipodi:cx="229.30463"
             sodipodi:sides="35"
             id="path4182"
             style="fill:#ff0000;stroke:#000000;stroke-width:1;stroke-miterlimit:4;stroke-opacity:0.51322752;stroke-dasharray:1, 48;stroke-dashoffset:0"
             sodipodi:type="star" />
          <path
             transform="matrix(1.0335677,0,0,1.0060604,-385.25516,-243.42322)"
             d="m 156.57364,671.53467 c 0.86101,0.81036 -0.66756,1.56042 -1.34687,1.43105 -1.8409,-0.35059 -2.20583,-2.68388 -1.51523,-4.12479 1.23532,-2.57745 4.63386,-2.978 6.90271,-1.59941 3.32962,2.02313 3.77208,6.60994 1.68359,9.68063 -2.78364,4.09273 -8.59525,4.57546 -12.45855,1.76777 -4.86156,-3.5332 -5.38363,-10.58495 -1.85195,-15.23647 4.27733,-5.63362 12.5771,-6.19457 18.01439,-1.93613 6.40765,5.01842 7.00724,14.5708 2.02031,20.7923 -5.75762,7.18298 -16.56552,7.82109 -23.57023,2.1045 -7.95919,-6.49556 -8.63574,-18.56097 -2.18867,-26.34815 7.23263,-8.73604 20.55693,-9.45098 29.12606,-2.27285 9.51336,7.96908 10.26667,22.5533 2.35704,31.90398"
             sodipodi:t0="0"
             sodipodi:argument="-18.094452"
             sodipodi:radius="23.582249"
             sodipodi:revolution="3"
             sodipodi:expansion="1"
             sodipodi:cy="671.53467"
             sodipodi:cx="156.57364"
             id="path4184"
             style="fill:none;stroke:#000000;stroke-width:2.96159363;stroke-linecap:butt;stroke-linejoin:miter;stroke-miterlimit:4;stroke-opacity:1;stroke-dasharray:none"
             sodipodi:type="spiral" />
          <path
             transform="matrix(-0.13826081,-0.99701824,-1.0242783,0.13458117,546.974,498.09049)"
             d="m 156.57364,671.53467 c 0.86101,0.81036 -0.66756,1.56042 -1.34687,1.43105 -1.8409,-0.35059 -2.20583,-2.68388 -1.51523,-4.12479 1.23532,-2.57745 4.63386,-2.978 6.90271,-1.59941 3.32962,2.02313 3.77208,6.60994 1.68359,9.68063 -2.78364,4.09273 -8.59525,4.57546 -12.45855,1.76777 -4.86156,-3.5332 -5.38363,-10.58495 -1.85195,-15.23647 4.27733,-5.63362 12.5771,-6.19457 18.01439,-1.93613 6.40765,5.01842 7.00724,14.5708 2.02031,20.7923 -5.75762,7.18298 -16.56552,7.82109 -23.57023,2.1045 -7.95919,-6.49556 -8.63574,-18.56097 -2.18867,-26.34815 7.23263,-8.73604 20.55693,-9.45098 29.12606,-2.27285 9.51336,7.96908 10.26667,22.5533 2.35704,31.90398"
             sodipodi:t0="0"
             sodipodi:argument="-18.094452"
             sodipodi:radius="23.582249"
             sodipodi:revolution="3"
             sodipodi:expansion="1"
             sodipodi:cy="671.53467"
             sodipodi:cx="156.57364"
             id="path4184-4"
             style="fill:none;stroke:#000000;stroke-width:2.96159363;stroke-linecap:butt;stroke-linejoin:miter;stroke-miterlimit:4;stroke-opacity:1;stroke-dasharray:none"
             sodipodi:type="spiral" />
          <path
             inkscape:connector-curvature="0"
             id="path4206"
             d="m -240.03417,472.16601 c -2.53483,3.96778 1.3457,10.49564 4.80914,11.39528 26.33421,23.13469 60.33777,25.22847 82.65144,3.58031 3.45182,-4.04378 8.13991,-7.25251 9.45076,-13.77112 0.3316,-3.80866 -3.82606,-5.19945 -5.77501,-4.15298 -20.09554,9.52498 -42.4229,13.05328 -64.98307,8.35013 -8.64247,-1.4267 -17.28204,-4.09592 -25.92528,-5.65443 l -0.2178,0.24151 -0.0108,0.0116 z"
             style="fill:#550000;stroke:#000000;stroke-width:1.76604617;stroke-miterlimit:4;stroke-opacity:0.51322752;stroke-dasharray:1.76604617, 84.77021633;stroke-dashoffset:0" />
        </g>
      </g>
      <path
         transform="matrix(0.99497102,0,0,1.1434361,12.538426,-53.215338)"
         d="m 98.994947,496.77829 c 0,4.46313 -3.618085,8.08122 -8.08122,8.08122 -4.463135,0 -8.081221,-3.61809 -8.081221,-8.08122 0,-4.46314 3.618086,-8.08122 8.081221,-8.08122 4.463135,0 8.08122,3.61808 8.08122,8.08122 z"
         sodipodi:ry="8.0812206"
         sodipodi:rx="8.0812206"
         sodipodi:cy="496.77829"
         sodipodi:cx="90.913727"
         id="path3207-45"
         style="fill:#d45500;fill-opacity:1;stroke:#000000;stroke-width:1.22000003;stroke-miterlimit:4;stroke-opacity:0.91534394;stroke-dasharray:none;stroke-dashoffset:0"
         sodipodi:type="arc" />
      <g
         id="g3450">
        <rect
           style="fill:#241f1c;fill-opacity:1;stroke:#000000;stroke-width:0.75409997;stroke-miterlimit:4;stroke-opacity:0.91534394;stroke-dasharray:none;stroke-dashoffset:0"
           id="rect3290"
           width="11.239022"
           height="68.682915"
           x="220.03224"
           y="474.79538" />
        <rect
           style="fill:#241f1c;fill-opacity:1;stroke:#000000;stroke-width:0.75409997;stroke-miterlimit:4;stroke-opacity:0.91534394;stroke-dasharray:none;stroke-dashoffset:0"
           id="rect3290-1"
           width="11.239022"
           height="68.682915"
           x="502.88037"
           y="190.6859"
           transform="matrix(0,1,1,0,0,0)" />
      </g>
      <path
         transform="matrix(0.99497102,0,0,1.1434361,22.639951,-39.073201)"
         d="m 98.994947,496.77829 c 0,4.46313 -3.618085,8.08122 -8.08122,8.08122 -4.463135,0 -8.081221,-3.61809 -8.081221,-8.08122 0,-4.46314 3.618086,-8.08122 8.081221,-8.08122 4.463135,0 8.08122,3.61808 8.08122,8.08122 z"
         sodipodi:ry="8.0812206"
         sodipodi:rx="8.0812206"
         sodipodi:cy="496.77829"
         sodipodi:cx="90.913727"
         id="path3207-45-7"
         style="fill:#d45500;fill-opacity:1;stroke:#000000;stroke-width:1.22000003;stroke-miterlimit:4;stroke-opacity:0.91534394;stroke-dasharray:none;stroke-dashoffset:0"
         sodipodi:type="arc" />
      <path
         transform="matrix(0.99497102,0,0,1.1434361,28.700867,-49.174727)"
         d="m 98.994947,496.77829 c 0,4.46313 -3.618085,8.08122 -8.08122,8.08122 -4.463135,0 -8.081221,-3.61809 -8.081221,-8.08122 0,-4.46314 3.618086,-8.08122 8.081221,-8.08122 4.463135,0 8.08122,3.61808 8.08122,8.08122 z"
         sodipodi:ry="8.0812206"
         sodipodi:rx="8.0812206"
         sodipodi:cy="496.77829"
         sodipodi:cx="90.913727"
         id="path3207-45-1"
         style="fill:#d45500;fill-opacity:1;stroke:#000000;stroke-width:1.22000003;stroke-miterlimit:4;stroke-opacity:0.91534394;stroke-dasharray:none;stroke-dashoffset:0"
         sodipodi:type="arc" />
      <path
         transform="matrix(0.99497102,0,0,1.1434361,22.639951,-69.377778)"
         d="m 98.994947,496.77829 c 0,4.46313 -3.618085,8.08122 -8.08122,8.08122 -4.463135,0 -8.081221,-3.61809 -8.081221,-8.08122 0,-4.46314 3.618086,-8.08122 8.081221,-8.08122 4.463135,0 8.08122,3.61808 8.08122,8.08122 z"
         sodipodi:ry="8.0812206"
         sodipodi:rx="8.0812206"
         sodipodi:cy="496.77829"
         sodipodi:cx="90.913727"
         id="path3207-45-15"
         style="fill:#d45500;fill-opacity:1;stroke:#000000;stroke-width:1.22000003;stroke-miterlimit:4;stroke-opacity:0.91534394;stroke-dasharray:none;stroke-dashoffset:0"
         sodipodi:type="arc" />
      <path
         transform="matrix(0.99497102,0,0,1.1434361,-1.6037097,-77.458998)"
         d="m 98.994947,496.77829 c 0,4.46313 -3.618085,8.08122 -8.08122,8.08122 -4.463135,0 -8.081221,-3.61809 -8.081221,-8.08122 0,-4.46314 3.618086,-8.08122 8.081221,-8.08122 4.463135,0 8.08122,3.61808 8.08122,8.08122 z"
         sodipodi:ry="8.0812206"
         sodipodi:rx="8.0812206"
         sodipodi:cy="496.77829"
         sodipodi:cx="90.913727"
         id="path3207-45-2"
         style="fill:#d45500;fill-opacity:1;stroke:#000000;stroke-width:1.22000003;stroke-miterlimit:4;stroke-opacity:0.91534394;stroke-dasharray:none;stroke-dashoffset:0"
         sodipodi:type="arc" />
      <path
         transform="matrix(0.99497102,0,0,1.1434361,-9.68493,-51.195032)"
         d="m 98.994947,496.77829 c 0,4.46313 -3.618085,8.08122 -8.08122,8.08122 -4.463135,0 -8.081221,-3.61809 -8.081221,-8.08122 0,-4.46314 3.618086,-8.08122 8.081221,-8.08122 4.463135,0 8.08122,3.61808 8.08122,8.08122 z"
         sodipodi:ry="8.0812206"
         sodipodi:rx="8.0812206"
         sodipodi:cy="496.77829"
         sodipodi:cx="90.913727"
         id="path3207-45-76"
         style="fill:#d45500;fill-opacity:1;stroke:#000000;stroke-width:1.22000003;stroke-miterlimit:4;stroke-opacity:0.91534394;stroke-dasharray:none;stroke-dashoffset:0"
         sodipodi:type="arc" />
      <path
         transform="matrix(0.99497102,0,0,1.1434361,42.843002,-67.357473)"
         d="m 98.994947,496.77829 c 0,4.46313 -3.618085,8.08122 -8.08122,8.08122 -4.463135,0 -8.081221,-3.61809 -8.081221,-8.08122 0,-4.46314 3.618086,-8.08122 8.081221,-8.08122 4.463135,0 8.08122,3.61808 8.08122,8.08122 z"
         sodipodi:ry="8.0812206"
         sodipodi:rx="8.0812206"
         sodipodi:cy="496.77829"
         sodipodi:cx="90.913727"
         id="path3207-45-14"
         style="fill:#d45500;fill-opacity:1;stroke:#000000;stroke-width:1.22000003;stroke-miterlimit:4;stroke-opacity:0.91534394;stroke-dasharray:none;stroke-dashoffset:0"
         sodipodi:type="arc" />
      <path
         transform="matrix(0.99497102,0,0,1.1434361,28.700867,-33.012286)"
         d="m 98.994947,496.77829 c 0,4.46313 -3.618085,8.08122 -8.08122,8.08122 -4.463135,0 -8.081221,-3.61809 -8.081221,-8.08122 0,-4.46314 3.618086,-8.08122 8.081221,-8.08122 4.463135,0 8.08122,3.61808 8.08122,8.08122 z"
         sodipodi:ry="8.0812206"
         sodipodi:rx="8.0812206"
         sodipodi:cy="496.77829"
         sodipodi:cx="90.913727"
         id="path3207-45-23"
         style="fill:#d45500;fill-opacity:1;stroke:#000000;stroke-width:1.22000003;stroke-miterlimit:4;stroke-opacity:0.91534394;stroke-dasharray:none;stroke-dashoffset:0"
         sodipodi:type="arc" />
      <path
         transform="matrix(0.99497102,0,0,1.1434361,12.538426,-83.519913)"
         d="m 98.994947,496.77829 c 0,4.46313 -3.618085,8.08122 -8.08122,8.08122 -4.463135,0 -8.081221,-3.61809 -8.081221,-8.08122 0,-4.46314 3.618086,-8.08122 8.081221,-8.08122 4.463135,0 8.08122,3.61808 8.08122,8.08122 z"
         sodipodi:ry="8.0812206"
         sodipodi:rx="8.0812206"
         sodipodi:cy="496.77829"
         sodipodi:cx="90.913727"
         id="path3207-45-22"
         style="fill:#d45500;fill-opacity:1;stroke:#000000;stroke-width:1.22000003;stroke-miterlimit:4;stroke-opacity:0.91534394;stroke-dasharray:none;stroke-dashoffset:0"
         sodipodi:type="arc" />
      <path
         transform="matrix(0.99497102,0,0,1.1434361,-1.6037097,-37.052896)"
         d="m 98.994947,496.77829 c 0,4.46313 -3.618085,8.08122 -8.08122,8.08122 -4.463135,0 -8.081221,-3.61809 -8.081221,-8.08122 0,-4.46314 3.618086,-8.08122 8.081221,-8.08122 4.463135,0 8.08122,3.61808 8.08122,8.08122 z"
         sodipodi:ry="8.0812206"
         sodipodi:rx="8.0812206"
         sodipodi:cy="496.77829"
         sodipodi:cx="90.913727"
         id="path3207-45-16"
         style="fill:#d45500;fill-opacity:1;stroke:#000000;stroke-width:1.22000003;stroke-miterlimit:4;stroke-opacity:0.91534394;stroke-dasharray:none;stroke-dashoffset:0"
         sodipodi:type="arc" />
      <path
         transform="matrix(0.99497102,0,0,1.1434361,-23.827066,-71.398083)"
         d="m 98.994947,496.77829 c 0,4.46313 -3.618085,8.08122 -8.08122,8.08122 -4.463135,0 -8.081221,-3.61809 -8.081221,-8.08122 0,-4.46314 3.618086,-8.08122 8.081221,-8.08122 4.463135,0 8.08122,3.61808 8.08122,8.08122 z"
         sodipodi:ry="8.0812206"
         sodipodi:rx="8.0812206"
         sodipodi:cy="496.77829"
         sodipodi:cx="90.913727"
         id="path3207-45-8"
         style="fill:#d45500;fill-opacity:1;stroke:#000000;stroke-width:1.22000003;stroke-miterlimit:4;stroke-opacity:0.91534394;stroke-dasharray:none;stroke-dashoffset:0"
         sodipodi:type="arc" />
      <path
         transform="matrix(0.99497102,0,0,1.1434361,-21.806761,-49.174727)"
         d="m 98.994947,496.77829 c 0,4.46313 -3.618085,8.08122 -8.08122,8.08122 -4.463135,0 -8.081221,-3.61809 -8.081221,-8.08122 0,-4.46314 3.618086,-8.08122 8.081221,-8.08122 4.463135,0 8.08122,3.61808 8.08122,8.08122 z"
         sodipodi:ry="8.0812206"
         sodipodi:rx="8.0812206"
         sodipodi:cy="496.77829"
         sodipodi:cx="90.913727"
         id="path3207-45-5"
         style="fill:#d45500;fill-opacity:1;stroke:#000000;stroke-width:1.22000003;stroke-miterlimit:4;stroke-opacity:0.91534394;stroke-dasharray:none;stroke-dashoffset:0"
         sodipodi:type="arc" />
      <path
         transform="matrix(0.99497102,0,0,1.1434361,56.985138,-47.154422)"
         d="m 98.994947,496.77829 c 0,4.46313 -3.618085,8.08122 -8.08122,8.08122 -4.463135,0 -8.081221,-3.61809 -8.081221,-8.08122 0,-4.46314 3.618086,-8.08122 8.081221,-8.08122 4.463135,0 8.08122,3.61808 8.08122,8.08122 z"
         sodipodi:ry="8.0812206"
         sodipodi:rx="8.0812206"
         sodipodi:cy="496.77829"
         sodipodi:cx="90.913727"
         id="path3207-45-761"
         style="fill:#d45500;fill-opacity:1;stroke:#000000;stroke-width:1.22000003;stroke-miterlimit:4;stroke-opacity:0.91534394;stroke-dasharray:none;stroke-dashoffset:0"
         sodipodi:type="arc" />
      <path
         transform="matrix(0.99497102,0,0,1.1434361,12.538426,-24.931066)"
         d="m 98.994947,496.77829 c 0,4.46313 -3.618085,8.08122 -8.08122,8.08122 -4.463135,0 -8.081221,-3.61809 -8.081221,-8.08122 0,-4.46314 3.618086,-8.08122 8.081221,-8.08122 4.463135,0 8.08122,3.61808 8.08122,8.08122 z"
         sodipodi:ry="8.0812206"
         sodipodi:rx="8.0812206"
         sodipodi:cy="496.77829"
         sodipodi:cx="90.913727"
         id="path3207-45-89"
         style="fill:#d45500;fill-opacity:1;stroke:#000000;stroke-width:1.22000003;stroke-miterlimit:4;stroke-opacity:0.91534394;stroke-dasharray:none;stroke-dashoffset:0"
         sodipodi:type="arc" />
      <path
         transform="matrix(0.99497102,0,0,1.1434361,34.761782,-91.60113)"
         d="m 98.994947,496.77829 c 0,4.46313 -3.618085,8.08122 -8.08122,8.08122 -4.463135,0 -8.081221,-3.61809 -8.081221,-8.08122 0,-4.46314 3.618086,-8.08122 8.081221,-8.08122 4.463135,0 8.08122,3.61808 8.08122,8.08122 z"
         sodipodi:ry="8.0812206"
         sodipodi:rx="8.0812206"
         sodipodi:cy="496.77829"
         sodipodi:cx="90.913727"
         id="path3207-45-27"
         style="fill:#d45500;fill-opacity:1;stroke:#000000;stroke-width:1.22000003;stroke-miterlimit:4;stroke-opacity:0.91534394;stroke-dasharray:none;stroke-dashoffset:0"
         sodipodi:type="arc" />
      <g
         transform="translate(0,4)"
         id="g3454">
        <rect
           style="fill:#241f1c;fill-opacity:1;stroke:#000000;stroke-width:0.75409997;stroke-miterlimit:4;stroke-opacity:0.91534394;stroke-dasharray:none;stroke-dashoffset:0"
           id="rect3290-1-9"
           width="11.239022"
           height="68.682915"
           x="487.11816"
           y="500.37704"
           transform="matrix(0,1,1,0,0,0)" />
        <rect
           style="fill:#241f1c;fill-opacity:1;stroke:#000000;stroke-width:0.75409997;stroke-miterlimit:4;stroke-opacity:0.91534394;stroke-dasharray:none;stroke-dashoffset:0"
           id="rect3290-1-5"
           width="11.239022"
           height="68.682915"
           x="517.42273"
           y="500.37704"
           transform="matrix(0,1,1,0,0,0)" />
      </g>
      <g
         id="g3498">
        <path
           style="fill:#008000;fill-opacity:1;stroke:#000000;stroke-width:1.22000003;stroke-miterlimit:4;stroke-opacity:0.91534394;stroke-dasharray:none;stroke-dashoffset:0"
           id="path3462"
           d="m 649.59375,223.5625 c -3.95833,37.54167 -7.91667,75.08333 -11.875,112.625 19.35045,-2.4566 29.50152,-25.2304 24.41888,-42.69728 0.49579,-23.68424 0.99158,-47.36848 1.48737,-71.05272 -4.67708,0.375 -9.35417,0.75 -14.03125,1.125 z"
           inkscape:connector-curvature="0" />
        <path
           style="fill:#008000;fill-opacity:1;stroke:#000000;stroke-width:1.22000003;stroke-miterlimit:4;stroke-opacity:0.91534394;stroke-dasharray:none;stroke-dashoffset:0"
           id="path3460"
           d="m 646.40473,345.51553 c 2.29671,-8.0809 5.75602,-15.8175 7.39894,-24.0741 0.36458,-5.91082 2.2893,-11.55983 4.22693,-17.11037 1.39886,-4.74764 3.61634,-9.12044 5.74586,-13.56695 2.69855,-4.6686 5.16828,-9.47742 8.04007,-14.04185 2.66614,-3.57436 5.26889,-7.23105 8.44604,-10.37682 3.05948,-3.57854 5.67905,-7.45654 8.82174,-10.97839 2.40139,-2.2602 4.38208,-4.93026 6.28572,-7.61114 2.22462,-4.18242 4.74543,-8.17775 7.42657,-12.07724 2.41119,-2.88086 1.14562,-1.59346 3.75319,-3.90452 0,0 11.28247,8.40778 11.28247,8.40778 l 0,0 c -1.57408,1.03576 -0.82927,0.67721 -2.17012,1.20008 -2.61966,3.47587 -4.95977,7.0641 -6.98424,10.93161 -2.03839,3.95057 -4.9275,7.32859 -7.80322,10.74769 -1.87556,1.06677 -0.11307,-0.0925 -2.35107,2.35676 -0.36422,0.39859 -0.87919,0.64639 -1.22107,1.06429 -1.72632,2.11019 -2.64278,4.83592 -4.7294,6.67709 -0.52976,0.6359 -1.05952,1.27179 -1.58927,1.90769 -0.26025,0.13076 -0.57906,0.18216 -0.78075,0.39228 -1.99782,2.0813 -3.42411,4.60395 -5.42429,6.701 -2.95568,3.90794 -4.73641,8.53336 -7.52617,12.55992 -2.09717,4.1339 -4.23192,8.10873 -5.48814,12.59117 -2.08136,4.73541 -3.63836,9.93788 -3.96039,15.1052 -1.57499,8.64038 -4.98815,16.7022 -7.50065,25.09084 0,0 -13.89875,-1.99202 -13.89875,-1.99202 z"
           inkscape:connector-curvature="0" />
        <path
           style="fill:#008000;fill-opacity:1;stroke:#000000;stroke-width:1.22000003;stroke-miterlimit:4;stroke-opacity:0.91534394;stroke-dasharray:none;stroke-dashoffset:0"
           id="path3458"
           d="m 637.86145,655.08577 c 1.27324,-10.1149 1.70241,-20.31389 1.80152,-30.50094 4.9e-4,-4.47165 -0.13607,-8.94145 -0.17971,-13.41265 -0.0217,-3.92767 -0.007,-7.85543 -10e-4,-11.78312 0.005,-4.05625 0.004,-8.11249 0.003,-12.16873 -5.6e-4,-4.0395 -6.3e-4,-8.07899 -6.4e-4,-12.11849 -0.34507,-4.59395 0.33115,-8.9982 1.42203,-13.44024 0.78689,-4.04015 0.74323,-8.11071 1.64931,-12.13954 0.99815,-3.5104 1.10612,-7.13514 1.10331,-10.75549 -0.0686,-4.04454 -0.12533,-8.08897 -0.14141,-12.13409 -0.006,-4.04794 0.003,-8.09588 0.007,-12.14382 0.002,-4.03907 0.002,-8.07814 10e-4,-12.11722 -3.7e-4,-4.04079 -3.6e-4,-8.08157 -3.5e-4,-12.12236 4e-5,-4.04061 5e-5,-8.08121 5e-5,-12.12181 0,-4.04061 0,-8.08122 0,-12.12182 0.006,-5.17783 0.0182,-10.35564 0.0126,-15.53348 -0.008,-4.2996 -0.013,-8.59921 -0.0137,-12.89881 1.8e-4,-3.98509 9.4e-4,-7.97017 10e-4,-11.95525 1.4e-4,-4.04717 4e-5,-8.09434 1e-5,-12.14151 -3e-5,-4.04027 -3e-5,-8.08055 -2e-5,-12.12082 0,-4.04056 0,-8.08113 0,-12.12169 0,-4.04062 0,-8.08125 0,-12.12188 0,-4.0406 0,-8.08121 0,-12.12182 -0.38042,-3.61479 0.62405,-7.49259 -0.22508,-11.04249 -0.91694,-4.12981 -2.63218,-7.95443 -3.5379,-12.0929 -1.19865,-3.98471 0.22612,-8.31918 -0.60506,-12.29128 -1.20043,-4.22783 -1.68487,-8.55973 -1.82108,-12.93692 -0.0177,-4.09609 0.0912,-8.19129 0.12555,-12.28717 -0.10187,-1.99723 0.15746,-4.0217 0.0123,-6.01683 -0.0445,-0.61149 -0.93466,-2.54644 -1.07182,-2.97671 -0.99022,-3.66409 -0.77913,-7.44429 -2.35079,-10.94516 -1.40754,-3.52655 -3.45217,-6.85496 -6.28419,-9.39924 -3.58005,-3.80899 -6.17095,-8.27325 -7.88061,-13.18745 -2.08689,-4.6264 -3.49393,-9.50447 -5.58002,-14.12705 -1.13761,-2.55795 -1.99691,-5.21678 -2.99017,-7.8306 -0.44626,-1.17437 -1.08291,-4.09375 -1.60915,-2.77836 -2.42213,-1.64851 -5.33796,-2.89548 -8.13714,-4.00388 -2.68995,-1.62153 -5.24287,-3.35074 -7.67596,-5.33648 0,0 9.80439,-10.08591 9.80439,-10.08591 l 0,0 c 1.69712,1.29819 3.46265,2.49352 5.34817,3.50746 3.78021,1.73859 7.72886,3.35018 10.8428,6.18945 0.78899,0.87569 1.6809,1.66862 2.36698,2.62708 2.52554,3.52822 2.90895,8.20748 4.87809,12.0049 2.24168,4.99342 3.82028,10.22735 6.04541,15.23136 0.93062,3.2638 2.91822,6.06776 5.19242,8.54754 3.69578,3.80687 6.7178,8.292 8.66768,13.24664 1.5256,3.84653 2.36345,7.73608 2.71108,11.84395 1.2838,4.11922 2.22778,8.07713 1.74308,12.44399 -0.0257,3.98595 -0.10707,7.97084 -0.15413,11.95649 0.0416,3.84114 0.43761,7.6107 1.56263,11.30675 0.63441,3.99219 0.24482,7.92902 0.52612,11.95237 0.73279,4.1824 2.84132,7.94883 3.55201,12.15077 0.80459,4.37158 0.57187,8.76299 0.57049,13.20117 0,4.04061 0,8.08121 0,12.12182 0,4.04063 0,8.08125 0,12.12188 0,4.04056 0,8.08112 0,12.12168 10e-6,4.04028 10e-6,8.08055 -2e-5,12.12083 -4e-5,4.04717 -1.3e-4,8.09434 1e-5,12.14151 2.3e-4,3.98502 9.9e-4,7.97004 10e-4,11.95506 -7.3e-4,4.30034 -0.005,8.60068 -0.0137,12.90101 -0.006,5.17717 0.006,10.3543 0.0126,15.53146 0,4.04061 0,8.08122 0,12.12183 0,4.04062 -10e-6,8.08124 -4e-5,12.12186 -3e-5,4.04043 -7e-5,8.08086 2.6e-4,12.12129 3.6e-4,4.04215 10e-4,8.0843 -4.2e-4,12.12645 -0.003,4.03328 -0.0109,8.06656 -0.0102,12.09984 0.01,4.03695 0.0508,8.07351 0.13936,12.10958 0.0427,4.52192 -0.002,9.07769 -1.14001,13.48814 -0.25153,0.94847 -0.72763,1.84487 -0.8495,2.81854 -0.38319,3.06153 0.13299,6.26966 -0.79592,9.28578 -0.32084,1.37608 -1.20383,3.41311 -1.38419,4.74259 -0.26909,1.98357 0.21385,4.06945 -3e-5,6.06049 0,4.03913 5e-5,8.07827 4.6e-4,12.1174 3.4e-4,4.0609 10e-4,8.1218 -0.002,12.1827 -0.004,3.89199 -0.0145,7.78402 -3.5e-4,11.676 0.0313,4.5442 0.1466,9.08753 0.12697,13.63206 -0.12431,10.60834 -0.66278,21.21853 -1.74661,31.77363 0,0 -14.02731,-0.26934 -14.02731,-0.26934 z"
           inkscape:connector-curvature="0" />
        <g
           id="g3492"
           transform="translate(296.98485,52.527932)">
          <g
             transform="matrix(0.58544391,0,0,0.58544391,165.2174,55.678213)"
             id="g3486">
            <path
               sodipodi:type="star"
               style="fill:#ffff00;fill-opacity:1;stroke:#000000;stroke-width:1.22000003;stroke-miterlimit:4;stroke-opacity:0.91534394;stroke-dasharray:none;stroke-dashoffset:0"
               id="path3482"
               sodipodi:sides="7"
               sodipodi:cx="80.812202"
               sodipodi:cy="219.99649"
               sodipodi:r1="101.67977"
               sodipodi:r2="54.907074"
               sodipodi:arg1="0.7150917"
               sodipodi:arg2="1.1638906"
               inkscape:flatsided="false"
               inkscape:rounded="0.24"
               inkscape:randomized="0"
               d="m 157.5838,286.66656 c -9.03095,10.39928 -42.39237,-21.69721 -55.04105,-16.24617 -12.648679,5.45104 -12.227813,51.7435 -25.989,51.16666 -13.761186,-0.57684 -9.467646,-46.67167 -21.615765,-53.16214 -12.14812,-6.49047 -48.0786114,22.70145 -56.207581,11.58287 -8.128969,-11.11859 30.586402,-36.50142 28.086626,-50.04594 -2.499776,-13.54453 -47.725231,-23.43525 -44.100703,-36.72306 3.624527,-13.28781 47.608265,1.15515 56.639214,-9.24412 9.030951,-10.39928 -11.433778,-51.92473 1.214904,-57.37577 12.64868,-5.45104 28.780133,37.94186 42.541319,38.5187 13.761187,0.57684 33.467546,-41.31382 45.615666,-34.82336 12.14812,6.49047 -11.72003,46.15758 -3.59106,57.27617 8.12897,11.11858 53.16712,0.40723 55.6669,13.95175 2.49977,13.54452 -43.39477,19.6157 -47.0193,32.9035 -3.62452,13.28781 32.83078,41.82163 23.79983,52.22091 z"
               inkscape:transform-center-x="-0.89350955"
               inkscape:transform-center-y="3.8723585"
               transform="translate(252.53814,-66.670068)" />
            <path
               sodipodi:type="star"
               style="fill:#ffff00;fill-opacity:1;stroke:#000000;stroke-width:1.22000003;stroke-miterlimit:4;stroke-opacity:0.91534394;stroke-dasharray:none;stroke-dashoffset:0"
               id="path3484"
               sodipodi:sides="7"
               sodipodi:cx="82.832512"
               sodipodi:cy="228.07771"
               sodipodi:r1="114.17852"
               sodipodi:r2="61.656399"
               sodipodi:arg1="0.23210384"
               sodipodi:arg2="0.68090279"
               inkscape:flatsided="false"
               inkscape:rounded="0.24"
               inkscape:randomized="0"
               d="m 193.94929,254.34168 c -3.55765,15.05158 -53.4735,0.53101 -63.20946,12.54841 -9.73597,12.0174 14.82482,57.83451 0.83886,64.43753 -13.98595,6.60303 -33.755338,-41.47618 -49.221197,-41.59534 -15.465859,-0.11916 -35.973707,47.64974 -49.856264,40.832 -13.882557,-6.81774 11.381275,-52.25097 1.831631,-64.41696 -9.549645,-12.16599 -59.683307,1.58375 -63.008614,-13.52086 -3.325308,-15.10461 47.947561,-23.67971 51.505207,-38.73129 3.557647,-15.05158 -38.450158,-45.67483 -28.7141918,-57.69224 9.735966,-12.0174 48.4083548,22.72286 62.3943128,16.11983 13.985958,-6.60303 11.736743,-58.53934 27.202602,-58.42018 15.465859,0.11916 12.416671,52.01465 26.299224,58.83239 13.88256,6.81774 53.08564,-27.32253 62.63529,-15.15654 9.54964,12.16599 -32.92502,42.13835 -29.59972,57.24296 3.32531,15.10461 54.45997,24.46871 50.90232,39.52029 z"
               inkscape:transform-center-x="0.18457066"
               inkscape:transform-center-y="-5.1513316"
               transform="translate(252.53814,-66.670068)" />
          </g>
          <path
             transform="translate(244.45692,-34.345187)"
             d="m 135.36044,182.62083 c 0,10.59995 -8.59295,19.1929 -19.1929,19.1929 -10.59994,0 -19.192896,-8.59295 -19.192896,-19.1929 0,-10.59994 8.592956,-19.19289 19.192896,-19.19289 10.59995,0 19.1929,8.59295 19.1929,19.19289 z"
             sodipodi:ry="19.192898"
             sodipodi:rx="19.192898"
             sodipodi:cy="182.62083"
             sodipodi:cx="116.16754"
             id="path3490"
             style="fill:#803300;fill-opacity:1;stroke:#000000;stroke-width:1.22000003;stroke-miterlimit:4;stroke-opacity:0.91534394;stroke-dasharray:none;stroke-dashoffset:0"
             sodipodi:type="arc" />
        </g>
      </g>
      <g
         id="g3522">
        <path
           style="fill:none;stroke:#000000;stroke-width:1px;stroke-linecap:butt;stroke-linejoin:miter;stroke-opacity:1"
           d="m 652.05347,545.77068 c 2.61202,-6.93098 9.96178,-9.27476 14.64721,-13.63706 1.51784,-21.29441 0.79809,-48.52163 1.01015,-60.60915"
           id="path3510"
           inkscape:connector-curvature="0" />
        <path
           style="fill:none;stroke:#000000;stroke-width:1px;stroke-linecap:butt;stroke-linejoin:miter;stroke-opacity:1"
           d="m 668.21591,496.27321 c -5.12194,-1.35764 -10.16176,-2.80325 -14.64721,-4.04061"
           id="path3512"
           inkscape:connector-curvature="0" />
        <path
           style="fill:none;stroke:#000000;stroke-width:1px;stroke-linecap:butt;stroke-linejoin:miter;stroke-opacity:1"
           d="m 667.71083,488.69706 c -5.99144,-2.29093 -7.02845,-9.13699 -10.10152,-13.13198"
           id="path3514"
           inkscape:connector-curvature="0" />
        <path
           style="fill:none;stroke:#000000;stroke-width:0.76905221px;stroke-linecap:butt;stroke-linejoin:miter;stroke-opacity:1"
           d="m 667.32123,533.25924 c -2.45513,-4.15887 -8.13665,-9.15372 -9.32232,-10.48761"
           id="path3518"
           inkscape:connector-curvature="0" />
        <path
           sodipodi:type="arc"
           style="fill:#ffffff;fill-opacity:1;stroke:#000000;stroke-width:1.22000003;stroke-miterlimit:4;stroke-opacity:0.91534394;stroke-dasharray:none;stroke-dashoffset:0"
           id="path3520"
           sodipodi:cx="667.96338"
           sodipodi:cy="467.48386"
           sodipodi:rx="8.3337584"
           sodipodi:ry="7.5761442"
           d="m 676.29714,467.48386 c 0,4.18419 -3.73115,7.57614 -8.33376,7.57614 -4.60261,0 -8.33376,-3.39195 -8.33376,-7.57614 0,-4.18419 3.73115,-7.57615 8.33376,-7.57615 4.60261,0 8.33376,3.39196 8.33376,7.57615 z" />
      </g>
    </g>
  </g>
</svg>
