<?xml version="1.0" encoding="UTF-8" standalone="no"?>
<!-- Created with Inkscape (http://www.inkscape.org/) -->

<svg
   xmlns:dc="http://purl.org/dc/elements/1.1/"
   xmlns:cc="http://creativecommons.org/ns#"
   xmlns:rdf="http://www.w3.org/1999/02/22-rdf-syntax-ns#"
   xmlns:svg="http://www.w3.org/2000/svg"
   xmlns="http://www.w3.org/2000/svg"
   xmlns:sodipodi="http://sodipodi.sourceforge.net/DTD/sodipodi-0.dtd"
   xmlns:inkscape="http://www.inkscape.org/namespaces/inkscape"
   width="744.09448819"
   height="1052.3622047"
   id="svg5791"
   version="1.1"
   inkscape:version="0.48.4 r9939"
   sodipodi:docname="New document 10">
  <defs
     id="defs5793" />
  <sodipodi:namedview
     id="base"
     pagecolor="#ffffff"
     bordercolor="#666666"
     borderopacity="1.0"
     inkscape:pageopacity="0.0"
     inkscape:pageshadow="2"
     inkscape:zoom="0.35"
     inkscape:cx="0.029064906"
     inkscape:cy="600.87327"
     inkscape:document-units="px"
     inkscape:current-layer="layer1"
     showgrid="false"
     inkscape:window-width="1360"
     inkscape:window-height="705"
     inkscape:window-x="-8"
     inkscape:window-y="-8"
     inkscape:window-maximized="1" />
  <metadata
     id="metadata5796">
    <rdf:RDF>
      <cc:Work
         rdf:about="">
        <dc:format>image/svg+xml</dc:format>
        <dc:type
           rdf:resource="http://purl.org/dc/dcmitype/StillImage" />
        <dc:title></dc:title>
      </cc:Work>
    </rdf:RDF>
  </metadata>
  <g
     inkscape:label="Layer 1"
     inkscape:groupmode="layer"
     id="layer1">
    <g
       id="g5803"
       transform="matrix(25.67723,0,0,25.67723,-6963.4852,-8296.6511)">
      <path
         transform="matrix(1.3152794,-0.05773212,0.05887756,1.289691,-101.30352,-71.175486)"
         d="m 284.10713,342.54075 c -1.00881,0.58577 -3.03962,-3.79556 -4.1958,-3.64044 -1.15619,0.15511 -1.96034,4.91679 -3.08787,4.61765 -1.12754,-0.29914 0.53453,-4.83321 -0.3927,-5.54107 -0.92723,-0.70786 -4.86286,2.09053 -5.44863,1.08172 -0.58576,-1.00881 3.79557,-3.03962 3.64045,-4.19581 -0.15512,-1.15618 -4.91679,-1.96033 -4.61765,-3.08786 0.29914,-1.12754 4.83321,0.53453 5.54107,-0.3927 0.70786,-0.92723 -2.09054,-4.86287 -1.08172,-5.44863 1.00881,-0.58576 3.03962,3.79557 4.1958,3.64045 1.15619,-0.15512 1.96034,-4.9168 3.08787,-4.61765 1.12754,0.29914 -0.53453,4.8332 0.3927,5.54106 0.92723,0.70786 4.86286,-2.09053 5.44863,-1.08172 0.58576,1.00882 -3.79557,3.03963 -3.64045,4.19581 0.15512,1.15618 4.91679,1.96033 4.61765,3.08787 -0.29914,1.12754 -4.83321,-0.53453 -5.54107,0.3927 -0.70786,0.92723 2.09054,4.86286 1.08172,5.44862 z"
         inkscape:randomized="0"
         inkscape:rounded="0.21"
         inkscape:flatsided="false"
         sodipodi:arg2="1.437429"
         sodipodi:arg1="1.0447299"
         sodipodi:r2="4.704905"
         sodipodi:r1="9.6018476"
         sodipodi:cy="334.23718"
         sodipodi:cx="279.28571"
         sodipodi:sides="8"
         id="path5801"
         style="fill:#000080;stroke:#000000;stroke-width:1;stroke-miterlimit:4;stroke-opacity:1;stroke-dasharray:1, 48;stroke-dashoffset:0"
         sodipodi:type="star" />
      <path
         inkscape:transform-center-y="0.083629114"
         inkscape:transform-center-x="0.60736904"
         d="m 288.57144,358.07646 c -1.7356,0.34711 -2.50618,-6.93932 -4.2425,-7.28281 -1.73631,-0.34348 -5.22317,6.10072 -6.69587,5.11892 -1.4727,-0.9818 3.1347,-6.67897 2.14982,-8.14961 -0.98487,-1.47065 -8.00719,0.62052 -8.35431,-1.11508 -0.34712,-1.73559 6.93931,-2.50618 7.2828,-4.24249 0.34349,-1.73632 -6.10072,-5.22317 -5.11892,-6.69587 0.9818,-1.4727 6.67898,3.1347 8.14962,2.14982 1.47064,-0.98488 -0.62052,-8.0072 1.11507,-8.35431 1.73559,-0.34712 2.50618,6.93931 4.2425,7.2828 1.73631,0.34348 5.22317,-6.10072 6.69587,-5.11892 1.47269,0.9818 -3.1347,6.67897 -2.14983,8.14962 0.98488,1.47064 8.0072,-0.62052 8.35432,1.11507 0.34712,1.73559 -6.93932,2.50618 -7.2828,4.24249 -0.34349,1.73632 6.10071,5.22317 5.11891,6.69587 -0.98179,1.4727 -6.67897,-3.1347 -8.14961,-2.14982 -1.47064,0.98488 0.62052,8.0072 -1.11507,8.35432 z"
         inkscape:randomized="0"
         inkscape:rounded="0.21"
         inkscape:flatsided="false"
         sodipodi:arg2="1.7660999"
         sodipodi:arg1="1.3734008"
         sodipodi:r2="7.1386271"
         sodipodi:r1="14.568627"
         sodipodi:cy="343.79074"
         sodipodi:cx="285.71429"
         sodipodi:sides="8"
         id="path5799"
         style="fill:#800080;stroke:#000000;stroke-width:1;stroke-miterlimit:4;stroke-opacity:1;stroke-dasharray:1, 48;stroke-dashoffset:0"
         sodipodi:type="star" />
    </g>
  </g>
</svg>
