<?xml version="1.0" encoding="UTF-8" standalone="no"?>
<!-- Created with Inkscape (http://www.inkscape.org/) -->

<svg
   xmlns:dc="http://purl.org/dc/elements/1.1/"
   xmlns:cc="http://creativecommons.org/ns#"
   xmlns:rdf="http://www.w3.org/1999/02/22-rdf-syntax-ns#"
   xmlns:svg="http://www.w3.org/2000/svg"
   xmlns="http://www.w3.org/2000/svg"
   xmlns:sodipodi="http://sodipodi.sourceforge.net/DTD/sodipodi-0.dtd"
   xmlns:inkscape="http://www.inkscape.org/namespaces/inkscape"
   width="2372.1423"
   height="2327.0989"
   id="svg3800"
   version="1.1"
   inkscape:version="0.48.4 r9939"
   sodipodi:docname="New document 5">
  <defs
     id="defs3802" />
  <sodipodi:namedview
     id="base"
     pagecolor="#ffffff"
     bordercolor="#666666"
     borderopacity="1.0"
     inkscape:pageopacity="0.0"
     inkscape:pageshadow="2"
     inkscape:zoom="0.12374369"
     inkscape:cx="2701.9578"
     inkscape:cy="1538.4114"
     inkscape:document-units="px"
     inkscape:current-layer="layer1"
     showgrid="false"
     fit-margin-top="0"
     fit-margin-left="0"
     fit-margin-right="0"
     fit-margin-bottom="0"
     inkscape:window-width="1366"
     inkscape:window-height="705"
     inkscape:window-x="1352"
     inkscape:window-y="-8"
     inkscape:window-maximized="1" />
  <metadata
     id="metadata3805">
    <rdf:RDF>
      <cc:Work
         rdf:about="">
        <dc:format>image/svg+xml</dc:format>
        <dc:type
           rdf:resource="http://purl.org/dc/dcmitype/StillImage" />
        <dc:title></dc:title>
      </cc:Work>
    </rdf:RDF>
  </metadata>
  <g
     inkscape:label="Layer 1"
     inkscape:groupmode="layer"
     id="layer1"
     transform="translate(1123.2425,805.46403)">
    <path
       style="fill:#e07d79;fill-opacity:1;stroke:#2c2008;stroke-width:14.54619598;stroke-linejoin:bevel;stroke-miterlimit:4;stroke-opacity:0.38596491;stroke-dasharray:none;stroke-dashoffset:0"
       d=""
       id="path4525"
       inkscape:connector-curvature="0"
       transform="translate(-1123.2425,-805.46403)" />
    <g
       id="g4533">
      <g
         id="g3775"
         transform="translate(-1358.2065,-843.90153)">
        <path
           style="fill:none;stroke:#000000;stroke-width:3.29999995;stroke-linecap:butt;stroke-linejoin:miter;stroke-miterlimit:4;stroke-opacity:1;stroke-dasharray:none"
           d="m 1492.5852,2003.6987 c 95.0938,-29.8026 174.7216,-81.305 267.917,-116.2533 40.8726,-9.1639 69.8536,-41.2739 104.8952,-58.7947 21.7292,-10.8647 51.8601,-6.8886 74.1616,-18.0393 99.5295,-49.7648 171.671,-110.918 223.1528,-202.4411 25.6424,-72.9146 88.9413,-139.7631 112.9127,-216.4716 36.1546,-82.9519 46.6002,-177.0474 68.1484,-263.2402 5.4259,-251.27614 -51.1886,-482.97943 -141.6419,-676.80785 M 1492.5852,2003.6987 c -34.5789,10.8059 -72.3463,15.4686 -111.5765,13.3624 -45.3987,0 -86.311,-19.8094 -132.9563,-17.3711 -75.0028,17.6477 -160.2789,28.9561 -239.8559,26.7248 C 889.22484,2026.5693 803.7156,1973.0192 700.86026,1922.856 542.354,1884.3216 497.25202,1754.5759 424.25764,1652.2664 388.04331,1584.3645 317.88702,1524.5538 314.68559,1436.4629 c -4.05131,-34.4362 -4.5851,-61.0364 -6.68122,-99.5503 -13.2301,-75.9012 -0.60273,-212.9838 21.37991,-280.6113 30.34358,-97.09946 46.6752,-215.12658 114.91703,-290.63318 2.85759,-5.71517 9.54651,-17.56398 14.03057,-22.04804 5.43562,-5.43561 17.07038,-12.09272 20.04367,-18.0393 4.82737,-9.65474 15.12698,-14.88716 18.70742,-22.04803 16.91216,-33.82433 89.38071,-71.08119 124.93887,-88.86026 15.82757,-7.91379 37.51381,-6.04609 55.45414,-12.0262 13.75906,-4.58636 29.59766,-4.81762 42.75983,-12.69433 50.86285,-11.62142 125.51261,-6.64976 175.71616,-23.38428 13.51118,-4.50372 51.28202,0 64.80786,0 116.66427,-122.40723 179.67707,-311.96525 287.29257,-419.58078 91.5033,-72.003366 206.7958,14.08148 280.6114,53.44978 21.7462,6.60227 22.036,-7.34536 24.0524,-8.01747 -2.6883,-14.79738 -10.6144,-34.49674 -10.69,-34.74236 -12.652,-29.79319 -16.5586,-52.87187 -18.7074,-61.467244 3.0327,-39.580945 26.6929,-35.398507 53.4498,-45.432315 20.3615,-10.324105 55.0188,-9.839024 69.4847,-10.689956 35.077,8.412148 80.0848,32.918773 106.8995,45.432314 49.7971,6.456794 96.0534,23.951981 133.6245,48.104801 114.9134,114.03088 241.2165,179.01899 315.3537,318.0262"
           id="path2995"
           inkscape:connector-curvature="0"
           sodipodi:nodetypes="cscsssssccccccccccssssscsccccccccccc" />
        <path
           style="fill:none;stroke:#000000;stroke-width:3.29999995;stroke-linecap:butt;stroke-linejoin:miter;stroke-miterlimit:4;stroke-opacity:1;stroke-dasharray:none"
           d="m 1592.8035,227.16157 c 30.7465,-40.64975 1.9405,-77.92527 -5.345,-93.53712 -23.3328,-57.859991 7.1002,-51.927016 42.7598,-56.122268 32.1248,4.825111 63.7293,21.722856 80.1747,29.397378 191.855,46.01559 332.9477,214.22238 443.6332,358.11354 107.2555,297.94664 222.8117,753.1501 10.69,1028.9083 -107.0112,244.363 -369.6195,293.6963 -590.6201,411.5633 -58.4132,42.6592 -129.4316,63.1071 -192.4192,66.8122 -47.4476,8.0387 -101.2228,-7.1728 -136.297,-13.3624 -48.8792,8.0502 -112.8394,18.7774 -157.6768,24.0524 -318.79231,-18.6735 -482.34075,-145.4082 -622.69,-323.3712 -46.85856,-69.0148 -58.36409,-113.9501 -88.19214,-160.3493 -46.49455,-126.0686 -42.42584,-275.4328 -26.72489,-408.8909 48.73888,-163.91319 99.57423,-323.78642 232.50655,-403.54581 107.34462,-60.90402 273.50301,-96.2096 400.87336,-96.2096 79.41122,-104.19604 169.26492,-220.94027 227.16162,-336.73363 36.2486,-57.90255 61.1149,-84.76344 128.2794,-101.55458 46.4737,-7.61329 64.1987,33.42085 101.5546,42.75982 26.4104,13.95965 56.8838,33.59649 93.5371,42.75983 20.7237,3.30476 53.3666,11.02274 58.7948,-10.68996 z"
           id="path3765"
           inkscape:connector-curvature="0"
           sodipodi:nodetypes="cccccccccccc" />
        <path
           style="fill:none;stroke:#000000;stroke-width:3.29999995;stroke-linecap:butt;stroke-linejoin:miter;stroke-miterlimit:4;stroke-opacity:1;stroke-dasharray:none"
           d="m 1520.6463,90.864628 c -29.7872,7.446788 -60.5284,12.948412 -93.5371,13.362442 -29.448,-4.573146 -75.9084,13.36245 -93.5371,13.36245"
           id="path3767"
           inkscape:connector-curvature="0" />
        <path
           style="fill:none;stroke:#000000;stroke-width:3.29999995;stroke-linecap:butt;stroke-linejoin:miter;stroke-miterlimit:4;stroke-opacity:1;stroke-dasharray:none"
           d="m 1632.8908,40.087335 c 151.4494,14.916362 316.8746,33.118206 462.3406,69.484715 30.2579,-5.10063 27.9854,14.62295 42.7599,29.39738 15.6041,15.6041 46.864,17.4667 58.7947,29.39738 10.0477,10.04767 12.6188,31.32622 24.0524,42.75983 13.6776,13.67755 35.5242,19.48923 48.1048,32.06987 34.2022,34.20216 49.629,79.02632 80.1747,109.57205 14.3737,14.37371 36.6152,22.45309 45.4323,40.08733 10.3577,20.71546 22.4409,49.16582 40.0874,66.81223 8.3462,8.34625 30.2789,12.45307 37.4148,26.72489 36.0683,72.13653 70.9531,131.48071 90.8646,211.12664 25.1288,173.43345 -15.9586,346.81315 -34.7423,497.08295 23.2172,29.8734 49.6037,53.3627 72.1572,72.1572 21.6507,53.4194 -31.4851,85.8528 -40.0874,120.262 -58.754,79.4689 -97.9046,171.757 -141.6419,259.2315 -39.3047,65.0991 -67.0066,128.6682 -101.5546,197.7642 -34.9193,69.8386 -116.4235,96.3231 -184.4017,141.6419 -32.5901,21.7267 -54.5067,83.904 -82.8472,112.2445 -122.1979,122.198 -288.2625,205.6901 -470.3581,251.214 -133.9767,26.6803 -277.1626,11.7892 -392.8558,-2.6725 -90.3004,-38.8267 -208.78778,-21.3799 -304.6638,-21.3799 C 599.50375,2299.681 454.84772,2083.1379 312.68122,1884.1048 213.6931,1724.892 224.93248,1489.4753 269.9214,1309.5197 c 11.76703,-68.2152 38.36775,-165.3002 42.75982,-200.4367"
           id="path3769"
           inkscape:connector-curvature="0"
           sodipodi:nodetypes="cc" />
        <path
           style="fill:none;stroke:#000000;stroke-width:2.20000005;stroke-linecap:butt;stroke-linejoin:miter;stroke-miterlimit:4;stroke-opacity:1;stroke-dasharray:none"
           d="m 1242.7074,2001.6943 c -2.7545,-18.7763 0,-38.0379 0,-48.1048"
           id="path3771"
           inkscape:connector-curvature="0" />
        <path
           style="fill:none;stroke:#000000;stroke-width:1.79999995;stroke-linecap:butt;stroke-linejoin:miter;stroke-miterlimit:4;stroke-opacity:1;stroke-dasharray:none"
           d="M 1243.4457,1964.2278 C 1149.4049,1511.122 1066.4485,1037.7462 963.76493,584.72114 c -13.70315,-5.98355 -5.06727,-17.73546 -7.55894,-26.45629"
           id="path3773"
           inkscape:connector-curvature="0" />
      </g>
      <path
         transform="translate(-1123.2425,-805.46403)"
         d="m 1302.8571,2132.8132 a 34.285713,31.428572 0 1 1 -68.5714,0 34.285713,31.428572 0 1 1 68.5714,0 z"
         sodipodi:ry="31.428572"
         sodipodi:rx="34.285713"
         sodipodi:cy="2132.8132"
         sodipodi:cx="1268.5714"
         id="path3871"
         style="fill:#f34e00;fill-opacity:0;stroke:#4e3400;stroke-width:1.79999994999999990;stroke-linejoin:bevel;stroke-miterlimit:4;stroke-opacity:0;stroke-dasharray:none;stroke-dashoffset:0"
         sodipodi:type="arc" />
      <path
         transform="translate(-1123.2425,-805.46403)"
         inkscape:connector-curvature="0"
         id="path4511"
         d="m 1058.4549,2312.9781 c -46.6313,-3.3302 -104.81612,-11.9588 -129.29955,-19.1748 -32.58776,-9.6045 -83.53457,-18.0636 -189.97729,-14.7783 -133.17727,4.1105 -149.88261,-5.401 -206.5448,-22.6753 C 445.57182,2229.8077 366.86013,2195.8928 297.64309,2117.514 230.81655,2041.8422 84.002182,1860.6634 53.535144,1797.3373 -12.178774,1660.7501 -6.2959343,1498.2358 41.829456,1266.8657 c 39.294813,-188.9158 89.780094,-402.9015 36.68903,-55.093 -4.336821,28.4113 -2.843768,89.5423 1.163917,139.9943 8.64365,108.8133 2.409855,112.8095 124.257027,296.5247 85.10624,128.319 133.069,183.9997 179.66494,208.5759 55.38883,29.2138 245.62357,110.3802 286.32976,122.1666 57.40226,16.6209 188.91274,16.525 276.44262,-0.2012 57.77955,-11.0414 77.78985,-11.4585 138.19035,-2.8807 120.2239,17.0738 146.1828,7.1673 338.2606,-80.9802 49.8796,-22.8905 106.6502,-40.6109 110.1067,-40.6134 -6.645,-10.1015 22.8509,-18.5873 51.7413,-36.361 28.8904,-17.7736 67.2004,-28.2772 76.4911,-28.2797 25.2631,-0.01 79.0563,-48.2074 131.6172,-89.8317 49.9088,-39.524 85.346,-69.7998 147.8925,-144.5282 14.2878,-17.0705 32.0219,-59.799 49.4434,-88.44 46.2013,-75.9552 86.4086,-156.9512 97.0707,-283.9286 9.541,-113.6276 32.426,-110.2501 23.2246,-225.73427 C 2089.2417,691.51125 1998.9307,431.81534 1910.4663,320.95849 1845.7385,239.84657 1642.06,89.235969 1590.6072,68.328812 c -25.8646,-10.509726 -45.3816,-24.288218 -53.2481,-24.445717 -7.8665,-0.157499 -148.394,-22.917163 -159.5057,-29.624652 -18.8877,-11.4014192 108.48,5.271575 161.3655,9.92614 147.3218,12.966114 333.1487,41.205814 347.5532,60.771506 5.8531,7.950244 25.2082,29.139441 39.9558,35.301381 14.7476,6.16194 31.1814,9.83463 38.7022,22.56629 7.5208,12.73166 25.338,48.3203 42.6701,52.7709 50.9401,13.08061 41.7636,39.26762 59.5512,65.46094 17.7876,26.19327 42.9428,62.30118 58.7009,66.89191 22.891,6.66868 29.0104,36.02542 40.9798,56.50708 11.9695,20.48165 41.0053,44.36688 52.3021,51.76875 22.8052,14.94258 65.2975,112.4846 90.8979,188.47785 27.2794,80.97787 19.8907,267.94937 -20.0755,508.00691 -3.7444,22.4912 0.4214,45.2023 47.1055,69.7248 33.4543,17.573 37.6144,45.1872 36.0533,48.6804 -1.0714,2.3975 -28.9452,48.9846 -56.9019,95.1139 -27.9568,46.1293 -95.5944,171.1487 -150.3058,277.8208 -54.7113,106.6721 -102.227,206.2783 -114.757,219.1646 -12.53,12.8862 -60.395,40.1932 -97.2,62.8648 -43.8383,27.0039 -73.8875,55.1617 -88.7816,80.4428 -63.4818,107.7536 -149.4147,159.2032 -279.6492,230.1998 -172.0948,93.8166 -319.4786,118.3965 -527.565,96.2581 z"
         style="fill:#ca2f2a;fill-opacity:1;stroke:#000000;stroke-width:14.54619598;stroke-linejoin:bevel;stroke-miterlimit:4;stroke-opacity:1;stroke-dasharray:none;stroke-dashoffset:0"
         sodipodi:nodetypes="csssssssssssssscscssssssssssssssssssssssssssssc" />
      <path
         transform="translate(-1123.2425,-805.46403)"
         inkscape:connector-curvature="0"
         id="path4521"
         d="m 1280.6409,149.23974 c -15.5564,-9.51066 -63.9819,-36.64571 -92.7711,-48.95093 l -115.201,-12.373124 90.9574,-14.330759 c 15.447,-2.433749 48.4474,-6.017414 73.3162,-8.078884 l 59.5016,-11.605268 13.3729,48.852245 c 16.1588,59.0292 16.4736,74.39545 -29.176,46.48672 z"
         style="fill:#ca2f2a;fill-opacity:1;stroke:#000000;stroke-width:14.54619598;stroke-linejoin:bevel;stroke-miterlimit:4;stroke-opacity:1;stroke-dasharray:none;stroke-dashoffset:0"
         sodipodi:nodetypes="sscsscss" />
      <path
         transform="translate(-1123.2425,-805.46403)"
         inkscape:connector-curvature="0"
         id="path4523"
         d="m 1088.6908,1964.4934 c -69.3867,-6.2058 -78.7919,-8.8699 -78.7919,-22.3188 0,-13.545 3.8834,-14.5757 34.3452,-9.1154 47.2259,8.4653 132.8669,5.5649 176.1585,-5.9659 19.7855,-5.2699 90.5218,-36.0927 157.1919,-68.495 66.67,-32.4023 173.9482,-84.4104 238.396,-115.5735 118.5465,-57.3223 189.5096,-119.164 236.6213,-176.3187 29.5749,-35.8795 83.8758,-118.829 126.7596,-205.1215 94.2093,-189.5711 92.9751,-480.61278 -19.8672,-830.54859 C 1926.4853,428.64069 1922.2015,420.48312 1863.9947,349.15832 1730.7634,185.90065 1642.4576,120.16394 1474.9696,59.559702 1397.3588,31.476833 1347.328,29.990494 1342.4635,55.623148 c -1.6172,8.521865 3.5975,34.728495 11.5882,58.236952 12.5683,36.97512 13.0443,45.51626 3.5281,63.2976 -16.4779,30.78921 -43.209,26.2908 -141.9732,-23.89177 -48.1114,-24.44569 -94.1934,-44.44671 -102.4044,-44.44671 -24.2577,0 -73.3037,23.47327 -97.9857,46.89571 -12.6317,11.98707 -41.21392,52.58329 -63.51611,90.21383 -58.17154,98.15297 -101.70632,161.37049 -205.26284,298.06527 -1.17896,1.55624 -6.09988,0.38439 -10.93536,-2.6041 -5.50217,-3.40053 2.61196,-18.43708 21.6857,-40.18646 16.76262,-19.11405 67.65263,-96.43714 113.08889,-171.8291 104.98807,-174.20563 137.43592,-215.29722 184.07342,-233.108219 45.165,-17.248685 85.6448,-8.544864 173.9681,37.405949 92.4916,48.11938 105.4871,43.48341 80.6304,-28.76378 -18.5114,-53.804341 -13.4608,-70.643309 25.2344,-84.132512 40.3212,-14.0560475 88.4177,-10.394374 132.3814,10.078439 22.2654,10.368481 58.6309,23.247941 80.8121,28.621023 50.8981,12.329291 113.4198,54.83975 240.4651,163.49956 74.502,63.72032 110.9489,101.64166 141.2911,147.00708 90.5412,135.37037 159.4035,387.53482 169.2279,619.69033 4.4784,105.82826 -9.2065,110.05276 -24.243,223.76706 -15.6933,118.6821 -33.4781,172.0752 -130.991,313.6341 -77.9467,113.1548 -186.002,232.127 -286.7301,250.6538 -15.6306,2.8749 -38.2099,12.9294 -50.3412,21.5036 -12.1313,8.5742 -70.3161,37.4778 -129.2995,64.2303 -235.4778,106.8031 -257.9958,112.6656 -388.0651,101.0323 z"
         style="fill:#e07d79;fill-opacity:1;stroke:#000000;stroke-width:14.54619598;stroke-linejoin:bevel;stroke-miterlimit:4;stroke-opacity:1;stroke-dasharray:none;stroke-dashoffset:0"
         sodipodi:nodetypes="sssssssssssssssssssssssssssssssssssss" />
      <path
         sodipodi:nodetypes="csssssssssssscssssssccc"
         transform="translate(-1123.2425,-805.46403)"
         inkscape:connector-curvature="0"
         id="path4527"
         d="m 731.09684,1975.4163 c -55.81074,-5.9616 -101.69625,-22.3816 -270.20737,-96.6929 -88.34245,-38.9579 -107.36451,-52.721 -156.52928,-113.254 -44.31643,-54.5636 -158.05089,-225.1735 -186.94155,-280.426 -27.783671,-53.1352 -37.866283,-118.675 -39.532935,-256.9752 -1.45254,-120.533 0.892404,-134.9865 48.510795,-299.00512 35.09906,-120.89655 70.1192,-214.37135 145.15697,-275.70493 86.52188,-70.72034 143.56193,-90.43452 281.88247,-103.85662 31.04343,-3.01233 77.83296,-9.09499 103.97675,-13.51702 31.92256,-5.39947 82.44504,-6.84238 87.94049,-1.34691 9.47355,9.47354 -30.98657,12.96664 -134.0362,26.25152 C 460.91561,580.27847 356.3883,633.82728 285.55626,710.33434 231.64374,768.5663 186.83722,841.47413 145.12417,970.59918 l -22.39058,97.27322 -2.92474,135.9522 c -3.40872,158.4489 23.21072,233.4209 86.09355,347.2602 108.11501,195.7249 255.33147,324.0834 460.20983,371.5979 124.32502,28.833 200.70883,30.7009 313.4821,7.6662 18.25362,-3.7284 22.22337,-1.6982 22.22337,11.3658 0,16.9318 -14.06215,21.3617 -92.93405,29.276 -93.63308,9.3954 -124.1498,10.1551 -177.78687,4.4256 l 2e-5,0 z"
         style="fill:#e07d79;fill-opacity:1;stroke:#000000;stroke-width:14.54619598;stroke-linejoin:bevel;stroke-miterlimit:4;stroke-opacity:1;stroke-dasharray:none;stroke-dashoffset:0" />
      <path
         sodipodi:nodetypes="csssssscsc"
         transform="translate(-1123.2425,-805.46403)"
         inkscape:connector-curvature="0"
         id="path4529"
         d="M 729.67943,1929.4272 C 516.63547,1890.7259 345.7358,1773.4114 226.86201,1597.308 135.17075,1461.4737 108.50092,1358.8806 115.11961,1167.4591 c 3.77292,-109.118 14.68082,-140.157 42.54063,-219.17338 81.71286,-231.75534 161.49434,-311.11777 353.71033,-359.70239 71.0659,-17.96265 220.21041,-41.5472 226.76537,-34.99224 2.30992,2.30992 11.30224,62.86108 24.92145,124.68109 32.14386,145.90661 253.32901,1242.16952 250.79711,1243.97142 -1.0643,0.7572 -38.1931,5.568 -70.162,10.6899 -72.45057,11.6078 -140.51703,9.8448 -214.01307,-3.5063 z"
         style="fill:#e0ad79;fill-opacity:1;stroke:#000000;stroke-width:5.64599991;stroke-linejoin:bevel;stroke-miterlimit:4;stroke-opacity:1;stroke-dasharray:none;stroke-dashoffset:0" />
      <path
         sodipodi:nodetypes="ccsssssssscsssssssssc"
         inkscape:connector-curvature="0"
         id="path4531"
         d="M -90.706163,1122.4477 -110.4951,1112.737 -225.18016,537.35587 c -63.07676,-316.4597 -124.83925,-620.82179 -137.24996,-676.36027 -21.23477,-95.0265 -21.74821,-101.69575 -8.70994,-113.13709 21.87617,-19.19676 130.06718,-169.05981 172.7252,-239.25393 90.08746,-148.23975 100.00376,-159.78033 158.13156,-184.03334 28.2044,-11.76792 29.8798,-11.3133 117.1777,31.79702 100.5793,49.66906 149.3926,57.58916 165.8149,26.9039 8.5963,-16.0624 7.8973,-30.3969 -5.2382,-107.41768 l -5.3792,-31.54131 43.4549,4.61665 c 81.786,8.68892 228.7373,80.14112 315.7946,153.54893 37.9764,32.02217 149.6603,157.36323 181.7028,203.9222 35.8359,52.07087 103.2747,282.0791 127.949,436.3859 16.8648,105.46768 16.4603,277.98432 -0.862,367.69552 -22.6454,117.2788 -127.2403,312.0329 -206.6019,384.6894 -53.8299,49.2818 -101.60761,91.52766 -232.09611,153.53256 -64.4477,30.624 -165.31304,71.37407 -208.09142,96.25477 -175.80936,102.2539 -149.48173,71.271 -230.314692,80.8471 -39.744377,4.7083 -100.071341,-1.3513 -113.733241,-3.3585 z"
         style="fill:#e0b079;fill-opacity:1;stroke:#2c2008;stroke-width:14.54619598;stroke-linejoin:bevel;stroke-miterlimit:4;stroke-opacity:0.38596491;stroke-dasharray:none;stroke-dashoffset:0" />
    </g>
  </g>
</svg>
