<?xml version="1.0" encoding="UTF-8" standalone="no"?>
<!-- Created with Inkscape (http://www.inkscape.org/) -->

<svg
   xmlns:dc="http://purl.org/dc/elements/1.1/"
   xmlns:cc="http://creativecommons.org/ns#"
   xmlns:rdf="http://www.w3.org/1999/02/22-rdf-syntax-ns#"
   xmlns:svg="http://www.w3.org/2000/svg"
   xmlns="http://www.w3.org/2000/svg"
   xmlns:sodipodi="http://sodipodi.sourceforge.net/DTD/sodipodi-0.dtd"
   xmlns:inkscape="http://www.inkscape.org/namespaces/inkscape"
   width="744.09448819"
   height="1052.3622047"
   id="svg2"
   version="1.1"
   inkscape:version="0.48.4 r9939"
   sodipodi:docname="New document 1">
  <defs
     id="defs4" />
  <sodipodi:namedview
     id="base"
     pagecolor="#ffffff"
     bordercolor="#666666"
     borderopacity="1.0"
     inkscape:pageopacity="0.0"
     inkscape:pageshadow="2"
     inkscape:zoom="0.7"
     inkscape:cx="330.69955"
     inkscape:cy="433.12265"
     inkscape:document-units="px"
     inkscape:current-layer="layer1"
     showgrid="false"
     inkscape:window-width="1366"
     inkscape:window-height="705"
     inkscape:window-x="1352"
     inkscape:window-y="-8"
     inkscape:window-maximized="1" />
  <metadata
     id="metadata7">
    <rdf:RDF>
      <cc:Work
         rdf:about="">
        <dc:format>image/svg+xml</dc:format>
        <dc:type
           rdf:resource="http://purl.org/dc/dcmitype/StillImage" />
        <dc:title></dc:title>
      </cc:Work>
    </rdf:RDF>
  </metadata>
  <g
     inkscape:label="Layer 1"
     inkscape:groupmode="layer"
     id="layer1">
    <g
       id="g3825">
      <g
         id="g3791">
        <path
           id="path2985-1"
           d="M 202.0625 381.4375 C 161.13324 382.46897 125.05896 420.46644 126.46258 461.44377 C 127.8966 486.9593 141.70581 509.51288 156.15127 529.78545 C 174.36411 556.25015 185.19352 587.84101 208.40625 610.75 C 230.04051 626.51802 262.90124 621.01478 279.74059 600.71499 C 297.12999 581.48001 305.35935 556.38971 316.6177 533.50329 C 325.62689 513.54221 334.44591 491.84325 331.09868 469.49529 C 326.61564 439.19714 305.01426 413.59459 278.625 399.21875 C 255.46174 386.16708 228.4984 380.73963 202.0625 381.4375 z "
           style="fill:#ff0000;fill-opacity:1;stroke:#696764;stroke-width:4;stroke-linejoin:bevel;stroke-miterlimit:4;stroke-dashoffset:0;stroke-opacity:0"
           transform="translate(62.857147,4.2857129)" />
        <path
           id="path2985-1-7"
           d="M 213.125 382.75 C 167.5014 382.58198 121.66365 408.75222 101.7582 450.35225 C 91.60079 473.37362 96.755102 500.59656 109.72806 521.41053 C 126.61809 549.94422 140.40119 581.00772 163.71486 605.12111 C 173.01104 614.51952 185.93823 620.7748 199.35785 619.92537 C 219.71107 619.56043 239.34034 606.06016 246.09595 586.69997 C 257.59553 561.20859 268.63306 535.47033 281.84712 510.80343 C 291.83351 489.65504 300.21736 465.98779 295.85308 442.31447 C 290.12615 413.84533 265.57792 391.28011 237.55177 385.24143 C 229.57385 383.30718 221.3276 382.49302 213.125 382.75 z "
           style="fill:#ff0000;fill-opacity:1;stroke:#696764;stroke-width:4;stroke-linejoin:bevel;stroke-miterlimit:4;stroke-dashoffset:0;stroke-opacity:0"
           transform="translate(134.28572,4.2857141)" />
      </g>
      <path
         inkscape:connector-curvature="0"
         id="path3803"
         d="m 314.07096,392.43315 c -56.72929,-108.88972 -77.44918,-77.10917 0,0 z"
         style="fill:#008000;stroke:#000000;stroke-width:1.42949784px;stroke-linecap:butt;stroke-linejoin:miter;stroke-opacity:1" />
      <path
         inkscape:connector-curvature="0"
         id="path3803-4"
         d="m 314.8701,393.06491 c 104.82616,-108.46413 21.05133,-76.80779 0,0 z"
         style="fill:#008000;stroke:#000000;stroke-width:1.70407414px;stroke-linecap:butt;stroke-linejoin:miter;stroke-opacity:1" />
      <path
         transform="matrix(0.50475054,0,0,0.42841371,405.77195,189.08324)"
         d="m -307.75715,519.70504 -2.54347,12.01405 -5.20613,-11.12218 -9.67091,7.56838 3.16108,-11.86652 -12.2732,-0.41862 10.04917,-7.05838 -9.13273,-8.20975 12.23515,1.05245 -1.71896,-12.15943 8.69618,8.67083 6.49913,-10.4196 1.08815,12.23204 11.67622,-3.80432 -7.02903,10.06974 11.38986,4.59105 -11.85725,3.19569 5.77407,10.83822 z"
         inkscape:randomized="0"
         inkscape:rounded="-8.6736174e-017"
         inkscape:flatsided="false"
         sodipodi:arg2="1.4562146"
         sodipodi:arg1="1.1071487"
         sodipodi:r2="22.36068"
         sodipodi:r1="11.403947"
         sodipodi:cy="509.50504"
         sodipodi:cx="-312.85715"
         sodipodi:sides="9"
         id="path3823"
         style="fill:#f2f2f2;fill-opacity:1;stroke:#696764;stroke-width:4;stroke-linejoin:bevel;stroke-miterlimit:4;stroke-opacity:0;stroke-dasharray:none;stroke-dashoffset:0"
         sodipodi:type="star" />
    </g>
  </g>
</svg>
