<?xml version="1.0" encoding="UTF-8" standalone="no"?>
<!-- Created with Inkscape (http://www.inkscape.org/) -->

<svg
   xmlns:dc="http://purl.org/dc/elements/1.1/"
   xmlns:cc="http://creativecommons.org/ns#"
   xmlns:rdf="http://www.w3.org/1999/02/22-rdf-syntax-ns#"
   xmlns:svg="http://www.w3.org/2000/svg"
   xmlns="http://www.w3.org/2000/svg"
   xmlns:sodipodi="http://sodipodi.sourceforge.net/DTD/sodipodi-0.dtd"
   xmlns:inkscape="http://www.inkscape.org/namespaces/inkscape"
   width="744.09448819"
   height="1052.3622047"
   id="svg8557"
   version="1.1"
   inkscape:version="0.48.4 r9939"
   sodipodi:docname="tallPlant.png">
  <defs
     id="defs8559" />
  <sodipodi:namedview
     id="base"
     pagecolor="#ffffff"
     bordercolor="#666666"
     borderopacity="1.0"
     inkscape:pageopacity="0.0"
     inkscape:pageshadow="2"
     inkscape:zoom="0.35"
     inkscape:cx="256.45755"
     inkscape:cy="550.92585"
     inkscape:document-units="px"
     inkscape:current-layer="g8581"
     showgrid="false"
     inkscape:window-width="1360"
     inkscape:window-height="705"
     inkscape:window-x="-8"
     inkscape:window-y="-8"
     inkscape:window-maximized="1" />
  <metadata
     id="metadata8562">
    <rdf:RDF>
      <cc:Work
         rdf:about="">
        <dc:format>image/svg+xml</dc:format>
        <dc:type
           rdf:resource="http://purl.org/dc/dcmitype/StillImage" />
        <dc:title></dc:title>
      </cc:Work>
    </rdf:RDF>
  </metadata>
  <g
     inkscape:label="Layer 1"
     inkscape:groupmode="layer"
     id="layer1">
    <g
       id="g8581"
       transform="translate(108.57143,245.71429)">
      <g
         id="g9110"
         transform="translate(22.857143,94.285714)">
        <path
           transform="translate(-108.57143,-245.71429)"
           inkscape:connector-curvature="0"
           id="rect8590"
           d="m 290.93304,8.7455357 c -2.65591,38.4737203 26.44533,68.9298513 32.83627,105.5058743 14.81317,71.90284 7.42831,146.11651 19.89185,218.32842 3.79184,56.67771 3.6662,113.92004 14.87839,169.80932 4.10379,64.43808 -29.20331,125.46681 -21.0752,190.10064 3.44595,26.71927 11.493,53.06732 9.29768,80.27835 -0.4207,29.36698 -6.78921,58.42469 -6.57899,87.75865 0.49263,8.24351 10.21668,13.5502 16.48412,7.05515 9.52025,-7.05254 9.03583,-20.87224 4.18569,-30.43759 -8.55864,-57.22771 -0.13822,-115.01163 2.45245,-172.35401 5.00856,-56.90435 18.68432,-112.53436 28.18216,-168.71603 4.24139,-68.57937 -11.88936,-137.09602 -2.91019,-205.56617 2.06413,-41.46686 -6.77441,-82.41466 -17.74488,-122.1351 -8.13004,-33.84061 -13.41778,-68.725347 -26.46185,-101.127504 -11.98808,-24.29945 -30.67058,-45.1705 -53.28125,-60.0625003 -0.0521,0.52083 -0.10417,1.04167 -0.15625,1.5625 z"
           style="fill:#008000;fill-opacity:1;stroke:#000000;stroke-width:3.01999998;stroke-miterlimit:4;stroke-opacity:0.16931218;stroke-dashoffset:0" />
        <path
           style="fill:#008000;fill-opacity:1;stroke:#000000;stroke-width:3.01999998;stroke-miterlimit:4;stroke-opacity:0.16931218;stroke-dashoffset:0"
           d="m 432.83929,-62.696429 c -18.1616,69.0749504 -66.78656,127.11042 -76.38606,198.893389 -8.18519,67.42581 -17.96969,137.61089 -54.99468,196.15581 -16.005,28.20025 -46.15492,48.28388 -53.00582,81.39659 -3.12478,14.13423 16.17357,20.34892 26.69666,14.93654 21.60123,-8.5353 37.23962,-26.89937 52.3774,-43.75733 39.06309,-48.27817 53.07738,-111.46197 55.90625,-172.25 3.44755,-57.75848 1.74262,-118.103539 26.44839,-171.859249 13.41481,-34.0426096 25.65013,-69.90819 23.86411,-107.01575 -0.30208,1.16667 -0.60417,2.33333 -0.90625,3.5 z"
           id="path8578"
           inkscape:connector-curvature="0" />
        <path
           style="fill:#008000;fill-opacity:1;stroke:#000000;stroke-width:3.01999998;stroke-miterlimit:4;stroke-opacity:0.16931218;stroke-dashoffset:0"
           d="m 86.705357,38.46875 c -17.37306,53.95292 -5.0127,112.01902 14.146873,163.71709 29.32195,82.2757 67.29255,161.81079 116.63438,234.03291 16.85245,7.70024 32.75011,-17.89945 20.60512,-30.74904 C 217.06095,346.17047 174.72514,298.17232 145.27687,243.25766 110.69665,183.3547 83.437977,115.64512 87.273517,45.26205 c -0.0851,-1.28688 0.69609,-10.59352 -0.56816,-6.7933 z"
           id="path8575"
           inkscape:connector-curvature="0" />
        <path
           style="fill:none;stroke:#000000;stroke-width:0.98314202px;stroke-linecap:butt;stroke-linejoin:miter;stroke-opacity:1"
           d="m 111.42014,405.64419 40.00243,215.39354 202.86948,2.76145 34.28781,-218.15499 z"
           id="path8565"
           inkscape:connector-curvature="0" />
        <path
           style="fill:none;stroke:#000000;stroke-width:1.11575878px;stroke-linecap:butt;stroke-linejoin:miter;stroke-opacity:1"
           d="m 122.91502,439.13435 254.16995,3.59852 z"
           id="path8567"
           inkscape:connector-curvature="0" />
        <path
           style="fill:#d45500;fill-opacity:1;stroke:#000000;stroke-width:8.62857151;stroke-miterlimit:4;stroke-opacity:0.16931218;stroke-dasharray:none;stroke-dashoffset:0"
           d="m 219.18122,620.19946 -65.97854,-0.82113 -14.87901,-83.51987 c -8.18345,-45.93594 -15.60813,-85.97183 -16.49929,-88.96866 -1.58205,-5.32022 1.393,-5.41006 126.09759,-3.80758 70.24482,0.90266 128.4715,2.39483 129.3926,3.31594 1.45436,1.45436 -19.9695,152.12305 -24.10321,169.51185 -1.48806,6.25964 -2.40227,6.41125 -34.78991,5.76957 -18.29393,-0.36244 -62.95203,-1.0285 -99.24023,-1.48012 z"
           id="path8569"
           inkscape:connector-curvature="0" />
        <path
           style="fill:#aa4400;fill-opacity:1;stroke:#000000;stroke-width:8.62857151;stroke-miterlimit:4;stroke-opacity:0.16931218;stroke-dasharray:none;stroke-dashoffset:0"
           d="m 197.5906,443.34114 c -85.01801,-0.90343 -77.99473,1.13088 -81.26733,-23.53919 l -1.89969,-14.32051 136.39211,0 136.39212,0 -1.53328,6.42857 c -0.8433,3.53571 -2.41438,12.53571 -3.49129,20 l -1.95802,13.57143 -53.24701,-0.6656 c -29.28586,-0.36608 -87.51029,-1.0297 -129.38761,-1.4747 z"
           id="path8571"
           inkscape:connector-curvature="0" />
        <path
           style="fill:#ff7f2a;fill-opacity:1;stroke:#000000;stroke-width:8.62857151;stroke-miterlimit:4;stroke-opacity:0.16931218;stroke-dasharray:none;stroke-dashoffset:0"
           d="m 203.0169,614.51837 c -24.75,-0.49297 -45.04532,-1.1851 -45.10072,-1.53805 -0.0554,-0.35296 -6.87704,-37.60602 -15.15921,-82.7846 l -15.05849,-82.14285 55.8735,0.007 c 30.73042,0.004 85.50947,0.84458 121.73121,1.86881 l 65.85772,1.86225 -5.17834,40.27404 c -2.84809,22.15072 -8.06568,58.9169 -11.59465,81.70261 l -6.41631,41.42857 -49.97736,0.10949 c -27.48754,0.0602 -70.22735,-0.29386 -94.97735,-0.78684 z"
           id="path8573"
           inkscape:connector-curvature="0" />
        <g
           transform="translate(-11.428571,-5.7142857)"
           id="g9105">
          <path
             style="fill:none;stroke:#000000;stroke-width:1px;stroke-linecap:butt;stroke-linejoin:miter;stroke-opacity:1"
             d="m 542.85714,866.6479 20,-40 20,42.85714 -20.33176,-42.17876 0.33176,-83.53553 -0.33176,-0.15844 0.33176,34.44416 -29.22008,-16.29115 28.55656,16.46447 26.37781,-17.31618 -27.0562,16.47933 0,-0.50507 0.83683,-0.83684"
             id="path8593"
             inkscape:connector-curvature="0"
             transform="translate(-108.57143,-245.71429)"
             sodipodi:nodetypes="ccccccccccccc" />
          <path
             sodipodi:type="arc"
             style="fill:#ffffff;fill-opacity:1;stroke:#000000;stroke-width:1.22000003;stroke-miterlimit:4;stroke-opacity:0.91534394;stroke-dasharray:none;stroke-dashoffset:0"
             id="path8595"
             sodipodi:cx="562.65497"
             sodipodi:cy="743.25549"
             sodipodi:rx="14.142136"
             sodipodi:ry="12.626906"
             d="m 576.7971,743.25549 c 0,6.97365 -6.33165,12.62691 -14.14213,12.62691 -7.81049,0 -14.14214,-5.65326 -14.14214,-12.62691 0,-6.97364 6.33165,-12.6269 14.14214,-12.6269 7.81048,0 14.14213,5.65326 14.14213,12.6269 z"
             transform="translate(-108.57143,-245.71429)" />
        </g>
      </g>
    </g>
  </g>
</svg>
