<?xml version="1.0" encoding="UTF-8" standalone="no"?>
<!-- Created with Inkscape (http://www.inkscape.org/) -->

<svg
   xmlns:dc="http://purl.org/dc/elements/1.1/"
   xmlns:cc="http://creativecommons.org/ns#"
   xmlns:rdf="http://www.w3.org/1999/02/22-rdf-syntax-ns#"
   xmlns:svg="http://www.w3.org/2000/svg"
   xmlns="http://www.w3.org/2000/svg"
   xmlns:sodipodi="http://sodipodi.sourceforge.net/DTD/sodipodi-0.dtd"
   xmlns:inkscape="http://www.inkscape.org/namespaces/inkscape"
   width="744.09448819"
   height="1052.3622047"
   id="svg5700"
   version="1.1"
   inkscape:version="0.48.4 r9939"
   sodipodi:docname="thoughtBubble.png">
  <defs
     id="defs5702" />
  <sodipodi:namedview
     id="base"
     pagecolor="#ffffff"
     bordercolor="#666666"
     borderopacity="1.0"
     inkscape:pageopacity="0.0"
     inkscape:pageshadow="2"
     inkscape:zoom="0.35"
     inkscape:cx="375"
     inkscape:cy="520"
     inkscape:document-units="px"
     inkscape:current-layer="layer1"
     showgrid="false"
     inkscape:window-width="1360"
     inkscape:window-height="705"
     inkscape:window-x="-8"
     inkscape:window-y="-8"
     inkscape:window-maximized="1" />
  <metadata
     id="metadata5705">
    <rdf:RDF>
      <cc:Work
         rdf:about="">
        <dc:format>image/svg+xml</dc:format>
        <dc:type
           rdf:resource="http://purl.org/dc/dcmitype/StillImage" />
        <dc:title></dc:title>
      </cc:Work>
    </rdf:RDF>
  </metadata>
  <g
     inkscape:label="Layer 1"
     inkscape:groupmode="layer"
     id="layer1">
    <g
       id="g5762">
      <path
         inkscape:connector-curvature="0"
         d="m 286.20459,451.8508 c -2.0894,0.27542 -4.17861,0.55235 -6.26821,0.82625 -4.79066,0.62795 -9.5773,1.28688 -14.37068,1.89376 -1.84069,0.23305 -3.72157,0.22907 -5.52753,0.65446 -0.82884,0.19524 -3.09331,1.37916 -2.26514,1.18111 2.37682,-0.56841 4.64008,-1.53593 6.96011,-2.30389 -2.89762,0.97389 -4.20018,2.78233 -3.77787,5.59885 0.58825,6.00979 -1.06049,11.82506 -1.34794,17.80771 -0.28051,4.90336 0.64483,13.83768 6.87304,14.76939 0.15311,-0.35111 0.097,-0.92907 0.45933,-1.05333 0.0765,-0.0262 14.0284,-0.84765 14.38265,-0.82602 1.72253,0.10519 3.3972,0.60973 5.0958,0.9146 2.69145,-0.70358 4.88856,3.20163 7.57402,2.7809 1.21636,-0.19057 2.45421,-0.708 3.78459,-0.85893 3.91866,-0.92284 8.24301,0.23618 12.13582,-0.56107 0.66719,-0.13664 2.45934,-1.12776 1.79579,-0.97441 -2.67384,0.6179 -5.25412,1.58714 -7.88119,2.38071 -0.19427,0.37008 -0.46623,0.70886 -0.58281,1.11025 -0.0716,0.24645 0.3343,-0.39717 0.44319,-0.62955 0.58565,-1.24978 1.10747,-2.52871 1.6345,-3.80431 0.7795,-1.88664 1.42991,-3.57107 1.64937,-5.58435 -0.32015,-4.30544 -0.63458,-8.54577 -2.16007,-12.5887 -1.41492,-5.58688 -6.07481,-9.20222 -9.80703,-13.30712 -4.35888,-4.79159 -4.75505,-8.77095 -11.44108,-9.71566 -0.4432,0.1074 -0.8864,0.2148 -1.3296,0.32219 0,0 10.77035,-26.27708 10.77035,-26.27708 l 0,0 c 1.71084,0.53036 3.42167,1.06073 5.1325,1.5911 8.76424,4.33335 13.41146,8.6416 19.07257,16.41708 5.70963,6.23263 11.83322,12.55888 14.18472,20.92628 2.54617,7.06894 3.61677,14.37959 3.98766,21.87783 -0.35249,6.23199 -1.78698,11.16873 -4.15484,16.89721 -0.95368,2.30723 -1.52461,4.79548 -2.77346,6.95723 -1.28752,2.22869 -3.17248,4.05395 -4.75872,6.08092 -4.73146,1.87859 -9.33155,4.12959 -14.19439,5.63578 -4.92994,1.52696 -12.60419,0.15204 -17.84317,1.00559 -5.05353,-0.16506 -10.08783,-1.169 -14.63921,-2.86865 -9.76845,1.53616 -20.31317,0.13992 -29.05443,-4.38261 -1.83751,-1.51493 -3.84051,-2.84898 -5.51254,-4.54481 -7.86969,-7.9817 -11.46735,-19.19173 -11.18693,-30.21322 0.11631,-4.55575 -0.35453,-9.9995 1.78091,-14.01355 -1.786,-13.80837 1.33202,-22.06901 11.93369,-31.2403 4.5363,-1.89243 8.95839,-4.08603 13.6089,-5.67728 1.25893,-0.43076 9.33734,-1.27959 10.7054,-1.44201 7.80779,-0.92694 15.60352,-2.06788 23.47495,-2.31102 0,0 -6.56302,27.54867 -6.56302,27.54867 z"
         id="path5718"
         style="fill:#550000;stroke:#000000;stroke-width:1;stroke-miterlimit:4;stroke-opacity:1;stroke-dasharray:1, 48;stroke-dashoffset:0" />
      <path
         inkscape:connector-curvature="0"
         d="m 226.20459,571.8508 c -1.33285,0.41604 -9.82942,2.77065 -10.53976,4.25048 -0.7058,1.47036 3.10288,-1.02843 4.69893,-1.36421 0.2865,-0.0603 -0.68725,0.81618 -0.70494,0.52394 -0.03,-0.49577 0.59585,-0.84496 0.65564,-1.33802 0.17765,-1.46494 0.029,-2.95121 0.0435,-4.42681 0.1018,-0.29573 -0.007,-0.87339 0.30539,-0.88718 0.67006,-0.0296 1.20244,0.61614 1.84966,0.79208 5.85508,1.59162 -1.95265,-0.9006 3.50478,-0.0714 1.98169,0.30112 3.8421,1.14811 5.7842,1.64413 3.85639,-0.67594 7.79056,-0.94976 11.73147,-1.10415 1.96912,-0.93522 4.47604,0.80502 6.44587,-0.0533 0.40648,-0.17711 -0.40769,-1.22419 -0.81571,-1.05068 -4.01456,1.70712 -8.01986,3.62609 -11.48208,6.28012 -1.52088,1.16585 -0.88931,5.48003 -1.24569,2.11781 -0.27193,-4.18022 -1.78619,-8.10271 -2.9604,-12.0801 -0.87415,-2.96102 -1.28399,-5.9745 -3.37958,-8.31067 -1.0189,1.10694 1.55911,2.1883 0.92809,3.03901 -0.14193,0.19134 -6.41758,0.0156 -6.98039,0.0546 0,0 6.89879,-27.5532 6.89879,-27.5532 l 0,0 c 9.19231,0.60474 17.62433,2.16851 23.61488,10.06275 5.38453,9.35652 8.13851,20.08941 9.95222,30.68598 0.28872,3.78706 1.48741,11.48767 -1.34413,14.66233 -8.83861,9.90962 -14.55531,9.77194 -25.10593,10.02857 -6.18535,0.38293 -12.42893,0.9201 -18.43239,-1.06826 -10.35419,-2.87037 -18.01323,-4.95682 -24.63309,-14.41209 -0.99589,-3.40259 -2.81471,-6.66665 -2.98769,-10.20777 -0.14886,-3.04762 0.80875,-6.1346 2.05335,-8.92047 6.3228,-14.15271 25.09789,-17.26641 38.70808,-18.84227 0,0 -6.56302,27.54867 -6.56302,27.54867 z"
         id="path5720"
         style="fill:#550000;stroke:#000000;stroke-width:1;stroke-miterlimit:4;stroke-opacity:1;stroke-dasharray:1, 48;stroke-dashoffset:0" />
      <path
         inkscape:connector-curvature="0"
         d="m 276.97136,636.02619 c 0.26998,4.74355 1.04068,9.83018 3.2915,14.11592 0.17271,0.32885 1.02478,0.94752 0.9491,0.58387 -0.58076,-2.79055 -2.23498,-3.67027 -4.2093,-5.46349 0.47895,-0.43201 0.9579,-0.86401 1.43686,-1.29602 0,0 0.004,28.36547 0.004,28.36547 l 0,0 c -2.0272,0.32275 -4.05441,0.64549 -6.08161,0.96823 -2.85052,-0.66925 -5.92525,-0.71322 -8.55157,-2.00775 -11.81737,-5.8248 -13.66774,-21.61423 -15.06743,-32.99502 0,0 28.22843,-2.27121 28.22843,-2.27121 z"
         id="path5724"
         style="fill:#550000;stroke:#000000;stroke-width:1;stroke-miterlimit:4;stroke-opacity:1;stroke-dasharray:1, 48;stroke-dashoffset:0" />
      <path
         inkscape:connector-curvature="0"
         d="m 486.80816,423.89342 c -7.122,-9.91929 -11.86443,-21.23806 -14.13978,-33.19796 -0.36623,-7.52626 -2.6417,-14.71601 -4.32353,-22.00514 -0.82605,-6.21031 -1.64589,-12.26549 -3.00179,-18.37701 -0.78204,-5.42528 -3.72038,-10.26567 -6.09843,-15.16564 -3.57646,-5.9065 -2.89803,-12.75637 -4.14718,-19.18503 -1.03398,-5.83157 -3.37292,-11.22961 -4.60333,-17.02092 -1.60096,-5.31829 -2.96074,-12.92773 -5.68159,-17.6963 -2.83851,-4.98355 -5.69693,-9.9221 -8.11688,-15.14279 -3.48429,-7.93188 -9.09604,-14.43038 -14.15191,-21.33145 -2.70432,-3.15227 -5.36589,-5.99274 -8.66349,-8.40876 -2.23584,-2.49324 -4.75325,-4.73972 -7.04167,-7.1397 -3.04837,-3.197 -0.87945,-1.68867 -2.84606,-2.95035 -0.12463,0.11221 -0.21333,0.38511 -0.37387,0.33663 -1.38301,-0.41765 -4.26067,-2.4988 -5.22666,-3.05527 -2.4214,-1.39487 -5.2025,-2.12747 -7.74543,-3.28742 -5.34329,-1.33761 -10.65395,-2.9343 -16.09801,-3.95668 -4.15007,-0.17165 -7.48518,-2.84517 -11.62143,-3.16629 0,0 7.66016,-18.38022 7.66016,-18.38022 l 0,0 c 3.99099,1.07012 7.74216,2.82658 11.88081,3.29858 6.33664,1.5861 12.81559,2.83602 18.8365,5.42136 6.02161,2.53792 11.89419,5.4724 17.26577,9.20798 3.01661,3.00788 5.8623,6.17525 8.92608,9.13453 4.41628,3.43288 8.052,7.64883 11.58498,11.96547 5.66544,7.73296 11.70936,15.19962 15.67219,24.033 2.42733,5.15158 5.3936,9.96513 8.07726,14.97585 3.081,6.87106 5.16116,14.19599 7.00492,21.49058 1.01924,5.90406 3.84304,11.29529 4.66004,17.26232 0.89549,5.09766 0.32604,10.40702 2.75242,15.1552 2.86046,6.00788 6.3865,11.99968 7.36129,18.64018 1.30252,6.08115 2.46827,12.06188 2.93062,18.27054 1.67062,7.5531 4.27019,14.98704 4.49668,22.78194 1.42299,9.40835 5.35275,18.25943 10.94033,25.94767 0,0 -16.16901,11.5451 -16.16901,11.5451 z"
         id="path5752"
         style="fill:#00ff00;stroke:#000000;stroke-width:1;stroke-miterlimit:4;stroke-opacity:1;stroke-dasharray:1, 48;stroke-dashoffset:0" />
      <path
         inkscape:connector-curvature="0"
         d="m 480.76462,401.99481 c -2.58355,-11.6337 -6.67974,-22.77572 -8.10464,-34.64714 -1.12272,-6.00194 0.78973,-12.21808 -0.16443,-18.17796 -1.79379,-6.77812 -4.37163,-13.13691 -5.32038,-20.15844 -0.5629,-6.84701 -0.18336,-13.71968 -0.0145,-20.57481 -0.13772,-8.31829 0.20581,-16.51108 1.39645,-24.74708 1.27618,-11.78118 4.28433,-23.25634 6.58965,-34.85189 0.77499,-7.89992 2.41517,-15.56258 4.7618,-23.1379 3.31773,-9.47001 7.25533,-18.73108 11.3341,-27.90067 3.53522,-8.75554 9.4461,-15.27624 17.28937,-20.30335 8.55633,-4.71294 17.67732,-8.11326 26.94276,-11.0689 4.42821,-0.95137 2.51242,-0.25635 5.83954,-1.81096 0,0 0.75948,19.872 0.75948,19.872 l 0,0 c -4.44274,1.26545 -2.42628,0.65124 -6.06004,1.8073 -10.56956,3.8132 -5.24902,1.17178 -13.61172,5.44528 -5.75294,1.60029 -9.44485,5.67833 -11.9598,11.02107 -3.79049,8.61237 -7.58827,17.21216 -10.91796,26.003 -0.64949,2.19053 -1.63488,4.27678 -2.21371,6.48703 -1.29705,4.95271 -1.59802,10.02663 -2.4109,15.07112 -2.21086,11.35897 -5.36088,22.54075 -6.5409,34.08102 -0.41142,2.77108 -1.07925,5.51098 -1.29339,8.30424 -0.36862,4.80824 0.3006,9.69951 -0.0481,14.51466 -0.14358,6.12527 -0.50839,12.25462 -0.26539,18.38124 0.57292,6.91598 4.08777,12.90131 5.2442,19.70427 0.8767,6.28631 0.16043,12.43859 0.23697,18.77037 1.00429,11.18448 5.26003,21.58085 7.60925,32.50762 0,0 -19.07771,5.40888 -19.07771,5.40888 z"
         id="path5754"
         style="fill:#00ff00;stroke:#000000;stroke-width:1;stroke-miterlimit:4;stroke-opacity:1;stroke-dasharray:1, 48;stroke-dashoffset:0" />
      <path
         inkscape:connector-curvature="0"
         d="m 460.92987,323.70686 c -2.22075,-8.5754 -4.50399,-17.04981 -7.09611,-25.50946 -1.23408,-2.55669 -0.22895,-5.86568 -1.90124,-8.23585 -0.13832,-0.19604 0.19714,0.86375 0.005,0.71978 -0.55372,-0.41533 -0.83541,-1.10387 -1.25312,-1.65581 -3.12934,-5.75936 -4.96651,-12.21566 -6.06674,-18.66123 -1.57481,-3.37148 0.70628,-13.80253 -0.61417,-16.45108 -2.03712,-5.14919 -2.50166,-10.63094 -2.67621,-16.10707 -1.714,-4.02292 -1.36195,-11.07825 -2.92405,-14.64129 -2.3264,-5.35793 -2.72466,-11.13615 -2.82944,-16.89348 -1.80088,-4.44925 -2.39804,-9.21222 -2.73543,-13.9598 -0.15698,-4.14646 -1.35977,-8.44268 -2.77502,-12.36365 -3.58341,-2.71766 -4.48633,-8.18834 -7.23604,-11.6623 -3.62531,-5.07383 -0.57278,-1.86968 -2.22282,-2.10717 -0.70245,-0.1011 -1.25934,-0.66324 -1.92459,-0.91046 -1.38043,-0.51299 -2.3082,-0.54072 -3.76087,-0.72197 -1.16367,-0.41374 -2.32734,-0.82749 -3.49101,-1.24123 0,0 9.31319,-17.57174 9.31319,-17.57174 l 0,0 c 0.78186,0.22422 1.56372,0.44844 2.34558,0.67266 6.7528,2.04587 13.26874,4.90988 16.72646,11.50332 3.12398,5.05471 5.6258,10.45628 9.00072,15.37083 1.74592,5.3054 3.48125,10.95431 3.76594,16.5213 0.1987,5.10586 1.61212,9.77642 2.81452,14.72478 -0.006,4.27289 0.0222,8.4273 1.90943,12.37686 1.74436,6.19092 2.15685,12.71117 3.82494,18.95336 0.046,4.52512 0.36407,8.86763 2.16136,13.09996 1.08945,5.78438 0.44263,11.52272 0.80693,17.38396 0.52157,3.95262 1.77248,7.66783 3.02012,11.41006 3.32954,4.33059 5.33261,8.85445 5.65168,14.33516 2.40101,8.33439 4.75962,16.62955 6.908,25.03876 0,0 -18.74721,6.5828 -18.74721,6.5828 z"
         id="path5756"
         style="fill:#00ff00;stroke:#000000;stroke-width:1;stroke-miterlimit:4;stroke-opacity:1;stroke-dasharray:1, 48;stroke-dashoffset:0" />
      <path
         inkscape:connector-curvature="0"
         d="m 288.62309,323.84213 c -13.61224,-4.95928 -29.74175,-6.26212 -41.064,-16.20082 -1.67353,-1.46902 -2.98916,-3.30148 -4.48374,-4.95222 -3.14424,-3.05382 -3.31443,-8.23363 -6.56096,-11.13291 -0.3331,-0.29747 0.30708,0.83875 0.46063,1.25812 -0.61112,-0.61961 -1.22223,-1.23922 -1.83335,-1.85883 0.0958,0.26671 0.50802,0.97792 0.28735,0.80013 -6.28856,-5.06662 -10.53188,-15.11091 -13.89112,-22.44437 -3.34566,-7.84339 -2.74571,-16.385 -3.85913,-24.67512 -1.77677,-11.71577 2.75966,-21.95564 9.26979,-31.35413 1.0154,-0.95154 10.11241,-12.85495 10.91904,-12.97476 3.18969,-6.27698 6.55744,-12.28686 10.59956,-18.06397 3.33694,-4.74436 7.67031,-8.94829 12.50698,-11.82821 9.71528,-11.66664 19.98935,-11.07475 33.14466,-9.17394 5.25267,0.87014 10.56208,0.45572 15.84385,0.22292 5.83409,2.92788 1.97321,-1.40609 1.41743,-1.15563 -3.98813,1.79719 -7.82725,4.03179 -11.25246,6.75265 -0.78511,0.62366 -0.47367,1.95873 -0.87228,2.87877 -0.0835,0.19276 -0.0814,-0.41262 -0.10579,-0.62126 -0.1732,-1.47943 -0.32465,-2.96132 -0.48697,-4.44198 -1.41515,-10.46018 -2.47685,-20.94401 -0.94295,-31.41675 1.98415,-10.11289 9.65262,-16.29806 16.4903,-23.22138 3.87842,-3.90374 8.62574,-6.89714 11.44198,-11.686737 6.36925,-11.981339 19.94123,-15.251367 32.46517,-17.126268 12.33983,-3.135973 24.85692,-4.27155 37.53025,-3.51975 4.92893,0.799921 10.04371,0.202596 14.97312,0.865678 4.936,0.663967 9.81687,2.208262 14.66606,3.327623 14.30914,6.065677 -4.50279,-4.167668 -10.58838,5.970399 -0.68107,1.13461 1.10391,-2.407218 1.58194,-3.641189 3.70832,-8.236229 9.34782,-16.484295 17.62294,-20.764695 4.3872,-2.269326 9.00231,-4.067892 13.50346,-6.101838 10.54797,-1.925312 21.02617,-2.777131 31.73658,-2.322009 6.85753,0.661388 13.73463,0.655628 20.61433,0.587557 9.37566,-0.06454 18.75102,-0.138827 28.1269,-0.147901 11.35249,1.867991 19.41362,7.857281 27.86825,15.105716 6.60123,4.71449 13.93708,8.300167 20.4905,13.035567 9.50654,5.179028 11.21011,13.722058 10.53202,23.756747 -0.44905,11.90807 -3.28537,22.91404 -9.21546,33.22825 -4.76498,6.55604 -9.8139,9.28682 -18.08117,11.41855 -3.01387,0.77714 5.63903,-2.65366 8.55643,-3.73817 1.28866,-0.47904 -2.31287,1.4896 -3.50821,2.16878 4.94343,-10.49127 2.06778,-1.20031 -1.52339,-18.18896 -0.10936,-0.51735 0.62385,-0.99587 1.14208,-1.10095 1.71596,-0.34794 3.49956,-0.12452 5.24903,-0.19497 7.15978,-0.28833 6.85702,-0.29264 14.18886,-0.66434 7.63458,-0.89773 15.27844,0.17122 22.81121,1.37328 3.04466,0.48585 6.18044,0.67958 9.09441,1.68696 1.65038,0.57054 3.16438,1.47779 4.74656,2.21668 9.35394,4.52201 9.52658,15.0017 12.16648,23.71699 1.76645,3.98985 3.47094,8.01791 6.87816,10.93999 0.60517,0.51901 1.3852,0.78971 2.07779,1.18456 1.26021,1.30769 2.52042,2.61537 3.78062,3.92305 5.97089,8.05622 6.668,18.03722 6.60001,27.71062 -0.39597,8.07594 -0.59637,16.15205 -0.56547,24.2376 1.38435,-2.08745 -3.54693,-8.24047 -3.30339,-8.69351 1.19203,-2.21752 14.22256,-2.06281 15.41295,-2.06719 20.04892,3.0904 23.30384,11.42855 29.12714,28.8149 3.04918,10.29185 6.09806,20.66904 9.97331,30.6953 1.67598,5.15001 3.4553,10.20895 5.78125,15.09664 1.25725,2.64196 1.7716,4.4766 2.42715,3.98428 0.2032,-0.15262 0.0577,-0.50498 0.0865,-0.75747 8.26526,5.86573 8.19862,15.59057 6.90866,24.56348 -0.75615,4.44728 -0.71468,8.93298 -1.69262,13.35307 -0.47235,2.13499 -2.07914,5.64808 -2.80554,7.39308 -4.77225,9.34746 -12.20897,16.92731 -19.43039,24.41033 -6.25121,6.59271 -13.16891,12.45712 -19.97411,18.44694 -0.0441,-0.10148 -0.0488,-0.37705 -0.1323,-0.30446 -0.76043,0.66104 -1.3253,1.52273 -2.06105,2.21113 -6.01141,5.62458 -14.26963,7.96676 -22.3417,8.17933 -12.36139,-0.7958 2.35811,4.66292 7.06522,-4.36301 9.32655,-17.88377 -8.42237,-20.88691 5.40029,-14.26447 11.80837,7.34395 13.6299,20.90522 15.31966,33.5244 -0.0555,8.24328 1.18786,16.10246 2.8925,24.09313 2.31872,11.96129 -4.79344,18.50494 -12.73731,25.75495 -4.76417,4.15834 -8.55266,9.8879 -14.53646,12.46457 -4.511,1.94248 -9.14462,3.58685 -13.71693,5.38028 -6.15728,2.5226 -12.69887,3.34696 -19.31445,3.28112 -7.31208,-0.0728 -3.06824,-0.77661 -8.33389,0.45018 -7.31571,1.94384 -14.9371,2.0509 -22.44522,1.62847 -5.98733,-1.01471 -12.26126,0.33197 -18.23255,-0.44571 -1.90804,-0.24849 -3.75642,-0.83593 -5.63463,-1.25389 -6.03131,-2.49673 -11.94895,-5.20231 -17.81206,-8.03403 -0.83028,-0.401 -1.78404,-1.57757 -2.55198,-1.06722 -0.65669,0.43641 1.15292,1.07593 1.72938,1.61389 4.61384,-1.31254 9.22767,-2.62509 13.84151,-3.93763 0.20564,1.08685 -0.82317,0.0984 -1.02276,0.40617 -0.66348,1.02305 -1.14756,2.15474 -1.8041,3.18224 -2.1857,3.42065 -2.63751,3.69287 -5.32528,6.73383 -7.11217,7.72306 -15.51612,11.6924 -25.60593,14.88864 -3.18312,1.00834 -6.62439,0.87432 -9.90353,1.50383 -9.93026,1.7415 -20.04569,0.82527 -30.04979,0.43766 -5.63934,-0.9635 -11.12787,-2.56801 -16.7997,-3.35044 -1.40336,-0.19359 -2.83776,-0.16354 -4.22704,-0.4407 -3.04785,-0.60804 -5.99729,-1.63693 -9.01782,-2.36872 -9.03935,-1.36267 -17.03054,-5.99676 -24.15427,-11.50145 -12.24498,-9.91636 -12.40737,-25.31208 -10.43194,-39.64841 1.44651,-6.00271 1.88222,-11.99121 1.63617,-18.125 -0.27942,-3.30584 -0.22187,-6.6361 -0.451,-9.94344 -0.0213,-0.30759 -0.16877,0.64165 -0.0447,0.92393 3.39394,7.72328 2.88036,3.35176 3.15607,7.63509 -10.54515,2.29886 -21.39842,2.93759 -32.16735,3.03209 -6.28457,-0.1651 -12.54081,-0.75965 -18.8301,-0.68437 -3.8428,-0.63239 -7.17263,-2.84644 -10.97976,-3.56294 -1.24035,-0.23344 -2.55974,0.2369 -3.78587,-0.0624 -1.54045,-0.37599 -2.97583,-1.09627 -4.46375,-1.6444 -10.73831,-3.7559 -14.15688,-10.86927 -14.1524,-22.04525 0.70159,-6.04083 1.61671,-12.02466 1.63558,-18.11599 -0.8527,4.38318 3.90529,6.64143 4.74237,8.89631 0.39879,1.07423 -4.27922,1.68023 -8.1446,2.21683 -8.96461,0.74164 -18.35717,1.8741 -26.65627,-2.54898 -1.73682,-0.92566 -3.27322,-2.18623 -4.90983,-3.27934 -5.51505,-4.662 -2.70566,-0.94457 -6.20724,-1.13371 -0.14839,-0.008 -7.7586,-1.36658 -8.3437,-1.47072 -5.79244,-0.0246 -10.41631,-4.97272 -16.23879,-3.78585 -3.41401,0.65866 -1.25943,0.46199 -6.93721,-0.66653 -7.54084,-1.49882 -12.31525,-4.5711 -18.62608,-8.74401 -5.27244,-4.36007 -8.07315,-9.82816 -8.53099,-16.68639 -0.18882,-2.82846 0.56213,-5.93376 0.43554,-8.84613 -0.37688,-2.84756 -0.4437,-5.74397 -0.83666,-8.58796 -0.0416,-0.30107 0.23292,0.74972 -0.0244,0.91146 -0.17503,0.11001 -0.7642,-1.35707 -1.62336,-3.26915 -3.45103,-9.39222 -1.66758,-19.53247 5.76071,-26.61466 1.6871,-1.6085 3.79227,-2.71163 5.6884,-4.06744 7.34867,-2.39026 14.43841,-4.35756 22.06892,-4.73347 1.4853,-0.0732 2.98989,0.14032 4.4606,-0.0799 0.83744,-0.12538 3.18822,-1.11529 2.35953,-0.94119 -2.33205,0.48994 -4.59567,1.26249 -6.8935,1.89373 -0.0216,-7.15092 2.24513,-0.46541 3.20099,-1.05592 1.74818,-1.07999 2.91281,-2.90541 4.4786,-4.23614 3.46821,-2.94757 12.81642,-6.56241 14.19471,-7.21241 0,0 2.08143,28.36288 2.08143,28.36288 l 0,0 c 2.39164,-1.23333 4.78621,-2.461 7.17492,-3.7 0.54288,-0.28159 -1.03325,0.73255 -1.63736,0.82773 -0.24428,0.0385 -0.35883,-0.61726 -0.56502,-0.48074 -2.531,1.67568 -3.95543,4.65126 -6.31461,6.56126 -1.17163,0.94856 -2.61113,1.50728 -3.91669,2.26092 -15.94208,5.65892 -9.18925,4.55291 -19.59918,5.5637 -3.71254,0.36048 -2.67359,0.22626 -6.29946,0.7204 -1.1853,0.16154 -4.57294,1.12467 -3.55408,0.49779 2.27302,-1.39854 4.97461,-1.93479 7.46191,-2.90219 -1.36416,-1.59221 -1.89184,-1.27454 -3.11895,-2.24554 -1.43602,-1.13631 -0.58299,-1.37064 -0.96061,0.16669 0.62659,1.4795 1.49305,2.85426 2.0616,4.35703 1.7816,4.70911 2.06239,9.40579 2.52944,14.36337 0.0195,0.28484 1.02001,9.877 -0.39108,9.07646 -0.89688,-0.50881 -1.24234,-1.6863 -2.0755,-2.29385 -0.2189,-0.15962 0.36671,0.39887 0.55007,0.59831 5.45047,3.46738 9.04319,4.07473 15.54493,3.96476 6.25365,1.02947 11.92916,3.67079 18.19631,4.49817 8.23652,1.21787 16.00371,1.49165 22.69696,7.36172 4.86035,2.30431 11.35065,-0.62012 16.36061,-0.58797 11.19313,-2.04066 20.23898,-2.85964 27.03885,8.70099 1.0395,1.76729 1.08986,3.95319 1.63479,5.92978 0.0958,6.59236 -0.27552,13.16961 -1.55302,19.65399 -0.12072,0.35632 0.006,1.14572 -0.36218,1.06895 -0.53331,-0.11118 -0.58319,-0.9247 -0.93622,-1.33962 -0.76696,-0.90145 -1.55671,-1.78821 -2.41678,-2.60131 -1.13009,-1.06838 -3.36115,-1.54926 1.50479,0.25719 0.39109,0.14519 0.79528,0.25233 1.19292,0.3785 3.872,0.49461 9.56077,2.08003 12.88966,2.85889 6.01011,0.20841 12.01151,0.76363 18.03042,0.6049 11.32889,-0.41807 22.48571,-2.51048 33.81526,-2.63731 2.78063,0.72353 5.93189,0.6062 8.34189,2.17058 9.34968,6.06907 9.19639,13.70772 9.45333,23.14708 0.41312,7.73374 0.42194,15.40717 -1.53931,22.97665 -0.52388,2.42928 -2.63768,13.28984 -1.06562,15.15668 0.71632,0.85063 1.66215,1.47783 2.49323,2.21675 4.96885,3.50991 10.59119,5.38937 16.56891,6.43785 8.43499,2.07195 17.0844,3.36627 25.65881,4.66525 8.40411,0.25571 16.85461,0.60307 25.11115,-1.35204 9.40445,-1.7619 7.50672,-3.21537 1.37107,0.98443 -1.91034,1.30762 10.85573,-4.05603 7.47237,-3.84019 5.26666,-4.34594 2.84221,-2.40215 6.78033,-8.94241 4.56795,-7.58625 9.08643,-5.93303 19.79992,-10.06232 7.21747,2.35221 13.87646,5.93366 21.04205,8.41259 6.8828,0.33289 13.78931,0.22858 20.67304,0.6026 6.58789,-0.0847 13.01428,-1.34179 19.53572,-2.15335 8.00386,-0.26189 15.56352,-0.7766 23.02417,-4.06868 -17.00692,8.27267 -3.79758,1.81278 -3.45365,1.72428 0.40989,-0.10548 0.84231,0.35588 1.24785,0.23473 2.98639,-0.89219 3.42626,-4.96941 6.43444,-5.94541 0.80754,-0.89465 6.19735,-7.15481 8.0992,-7.05089 1.2421,0.0679 0.75669,2.38309 1.33184,3.48609 0.15616,0.29946 0.009,-0.67541 0.0139,-1.01311 -0.54551,-3.10336 -1.43483,-6.12787 -1.93236,-9.24284 -1.14114,-7.14451 -0.53397,-4.10145 -0.76788,-10.85502 -0.0641,-1.85142 -0.21808,-3.69863 -0.32712,-5.54795 -1.61054,-13.29312 0.42818,2.58424 -1.55875,-10.15593 -0.11134,-0.71394 -0.11999,-1.44015 -0.17999,-2.16022 -0.26024,-0.65287 -0.67235,-1.26419 -0.78072,-1.9586 -0.0241,-0.1546 0.58264,0.0226 0.46287,-0.0781 -0.74716,-0.62815 -1.63656,-1.06441 -2.45484,-1.59662 -8.86327,-5.39045 -17.35837,-9.44506 -11.40625,-25.29831 2.91382,-7.76083 14.09256,-6.08305 20.31913,-6.84741 0.43351,-0.15314 1.72488,-0.63635 1.30053,-0.45942 -2.54667,1.06183 -5.22652,1.83152 -7.66912,3.11478 -0.24227,0.12728 0.22756,0.69358 0.49814,0.65261 0.5381,-0.0815 0.81586,-0.78892 1.3412,-0.93106 0.17776,-0.0481 0.13817,0.34142 0.20725,0.51213 0.81551,-0.96473 1.63102,-1.92947 2.44653,-2.8942 3.17078,-1.10923 -0.12744,0.25894 4.51451,-3.39434 0.92796,-0.73033 2.0805,-1.14561 2.99352,-1.89453 3.65862,-3.00107 6.61399,-6.85187 10.26561,-9.8713 4.36464,-4.24477 8.2579,-8.88253 12.51105,-13.21097 0.61416,-0.62503 1.47653,-0.98866 2.03564,-1.66338 0.78366,-0.9457 1.29267,-2.08876 1.939,-3.13314 1.58312,-1.87834 0.87569,-0.73964 1.87336,-3.55871 0.16821,-0.21066 0.4923,0.85416 0.55181,0.59124 0.76609,-3.38474 -0.23879,-7.22912 0.85096,-10.60931 0.24643,-1.53491 0.0767,-3.2333 0.84035,-4.58736 0.45671,-0.80977 1.19653,1.42381 1.76752,2.15749 0.29347,0.37708 1.46967,1.17463 1.02345,1.00371 -0.60984,-0.2336 -1.03048,-0.80251 -1.54572,-1.20377 -1.35938,-1.29815 -2.86764,-2.45648 -4.07816,-3.89446 -5.89126,-6.99821 -7.88862,-16.66737 -11.13865,-24.96335 -3.91179,-10.35081 -7.28952,-20.9565 -10.37873,-31.5584 -0.33212,-0.99532 -2.25452,-6.52943 -2.53446,-8.07957 -0.0772,-0.42734 0.59152,-1.06687 0.21587,-1.28474 -2.00961,-1.16553 -3.29023,-0.94978 -5.66705,-1.15598 -12.05405,1.35707 -23.30105,5.54089 -31.95985,-6.7157 -1.61478,-2.28573 -1.89492,-5.26665 -2.84238,-7.89998 -0.002,-8.23788 -0.009,-16.48362 0.50462,-24.70855 0.0447,-1.28338 0.16682,-4.02194 0.12274,-5.40247 -0.0556,-1.74071 -0.79816,-3.4551 -0.62145,-5.18772 0.24568,-2.40881 1.71653,3.09954 0.4943,-0.75466 -2.20042,-2.22062 -4.6904,-4.14672 -6.83926,-6.41727 -5.14737,-5.43886 -8.42563,-12.10351 -11.09734,-19.00806 -0.82556,-2.69195 -2.23819,-7.16351 -2.84369,-9.77442 -0.23026,-0.99288 -1.45806,-2.87976 -0.44916,-3.02453 1.10045,-0.1579 1.04739,1.97817 1.75276,2.83748 0.60767,0.74029 1.5544,1.15762 2.14533,1.91135 0.22727,0.2899 -0.67054,-0.30524 -1.0058,-0.45786 -8.90784,-1.45049 -17.9293,-2.76534 -27.01804,-1.69475 -5.62214,0.22593 -26.93338,2.06281 -30.87003,-2.02608 -11.84496,-12.30305 -9.3641,-12.23068 -4.96968,-23.07416 5.49505,-4.59677 9.00678,-4.75347 16.43516,-9.25159 0.36938,-0.22367 -8.94725,1.7069 -7.85273,5.36553 0.1387,0.46364 0.82442,-0.5071 1.23663,-0.76066 2.47141,-0.15957 1.00427,0.28022 2.89919,-3.51339 2.71728,-5.43997 3.07252,-11.16324 3.46834,-17.18322 0.12542,-0.83771 0.065,-1.72535 0.37624,-2.51315 0.001,-0.003 3.75919,3.1374 2.64604,2.66028 -1.48952,-0.63844 -2.39804,-2.32453 -3.99716,-2.76757 -7.32349,-4.89315 -15.27577,-8.891514 -22.08582,-14.551 -3.98759,-3.446207 -8.51376,-7.165709 -14.02933,-7.249333 -9.35047,-0.01257 -18.70056,0.05411 -28.05026,0.173074 -7.07105,-0.01887 -14.11965,-0.40149 -21.17998,-0.746009 -7.61925,0.01929 -15.45198,0.655998 -22.69203,3.132774 12.90117,-6.923418 -0.7176,-0.536777 -1.98591,0.619127 -1.26252,1.150626 -1.86002,2.932371 -3.36731,3.862941 -1.46417,3.964999 -4.13051,14.276126 -8.06413,16.016866 -13.93323,6.16586 -13.45912,4.43025 -22.18061,1.71053 -8.40092,-1.98229 -16.87284,-2.64197 -25.50841,-2.78719 -11.02395,-0.083 -21.79636,1.92888 -32.52263,4.37666 -1.39795,0.34588 -2.80388,0.661 -4.19387,1.03763 -4.55964,1.23547 -8.97338,3.15625 4.07427,-2.61432 0.70977,-0.31391 -1.27241,1.40862 -2.01163,1.17225 -4.23271,-1.35342 2.83568,-2.39408 -1.03657,-1.63966 -3.49523,6.64738 -7.3207,13.41466 -14.09898,17.23925 -2.63569,2.69695 -6.58372,7.64407 -9.52406,9.76552 -0.56505,0.40769 -1.65137,-0.74839 -2.08075,-0.19964 -0.56276,0.71922 -0.65141,1.70634 -0.97711,2.55951 -1.77565,0.78239 -0.82926,0.0937 -0.84433,3.74291 -0.0265,6.41592 0.58365,12.80486 1.46574,19.15489 0.64596,4.77221 3.08401,14.66629 -0.40045,18.79602 -8.21682,9.73846 -12.20133,10.5277 -22.0925,10.6222 -6.4007,0.10859 -12.78202,-0.18428 -19.11993,-1.1516 -0.91975,-0.0826 -1.83675,-0.20589 -2.75925,-0.24781 -0.6942,-0.0316 -1.39468,-0.0558 -2.08457,0.0277 -0.35992,0.0435 -1.36656,0.48408 -1.03009,0.34907 2.7958,-1.12181 10.15459,-2.42178 7.88957,-4.40791 -0.2373,-0.20808 -0.62544,0.0852 -0.93815,0.12782 -1.23486,1.62082 -3.23629,4.49101 -4.91917,5.72636 -0.28289,0.20767 -0.7564,-0.20586 -1.05265,-0.0177 -0.93234,0.59205 -1.50501,1.65539 -2.4434,2.2378 -0.39189,0.24324 -0.99079,-0.11823 -1.37727,0.13352 -0.76893,0.50088 -1.26292,1.33175 -1.89438,1.99762 -1.28046,1.62185 -2.2922,3.44718 -3.6029,5.04469 -1.89338,2.30769 -1.03997,-0.5032 -2.5542,2.92323 -0.74106,1.67691 -1.11817,3.50156 -1.88383,5.16738 -0.34079,0.74145 -0.94054,1.33376 -1.41081,2.00065 -0.90043,1.82417 -1.62951,3.74346 -2.70129,5.47252 -0.63962,1.03187 -1.98227,1.47021 -2.68661,2.45903 -1.01946,1.43122 -1.68861,3.1107 -2.82635,4.44982 -0.38594,0.45425 -1.07465,0.51605 -1.61197,0.77407 -0.88393,1.14209 -1.76786,2.28418 -2.65179,3.42627 -3.04092,2.99403 -4.68414,5.53489 -6.35642,9.39473 -0.17458,0.40295 -0.62109,0.70013 -0.66544,1.13703 -0.10433,1.02789 0.15754,2.06032 0.23631,3.09048 0.5233,3.9649 1.28296,8.01261 1.35113,12.01756 0.0448,2.63243 -0.67754,1.21323 -0.25129,3.72095 0.15214,0.89508 0.47289,1.75318 0.70934,2.62977 2.1461,4.81919 0.94118,2.37389 3.76862,7.49902 2.79479,5.06596 0.77366,3.36406 5.49144,7.05673 3.8861,3.55788 7.2157,8.1302 8.93853,13.14229 1.82415,2.64995 5.75749,4.00653 8.52807,5.04171 8.55646,3.19699 17.51125,5.15995 26.27934,7.65238 0,0 -11.78327,25.70253 -11.78327,25.70253 z"
         id="path5716"
         style="fill:#550000;stroke:#000000;stroke-width:1;stroke-miterlimit:4;stroke-opacity:1;stroke-dasharray:1, 48;stroke-dashoffset:0" />
      <path
         transform="matrix(0.70069237,0,0,0.70648642,977.10419,-112.67934)"
         inkscape:transform-center-y="0.058517759"
         inkscape:transform-center-x="0.062879832"
         d="m -828.57144,455.21932 c -8.50736,-7.08947 21.11373,-39.99916 16.52487,-50.07775 -4.58886,-10.07859 -48.85982,-9.34465 -48.62131,-20.41618 0.23852,-11.07153 44.4368,-8.43169 49.45545,-18.3033 5.01865,-9.87161 -23.15766,-44.02644 -14.35288,-50.74294 8.80478,-6.71651 34.29805,29.48501 45.14507,27.2539 10.84701,-2.23111 19.98269,-45.55542 30.72356,-42.85924 10.74086,2.69618 -1.66783,45.1989 6.83952,52.28837 8.50736,7.08946 48.07567,-12.78025 52.66453,-2.70166 4.58886,10.07859 -36.3778,26.87709 -36.61631,37.94862 -0.23852,11.07152 39.96668,29.61872 34.94803,39.49034 -5.01865,9.87161 -43.69454,-11.68372 -52.49932,-4.96722 -8.80478,6.71651 1.76197,49.71419 -9.08505,51.9453 -10.84701,2.23111 -18.1084,-41.44645 -28.84926,-44.14263 -10.74087,-2.69619 -37.76955,32.37385 -46.2769,25.28439 z"
         inkscape:randomized="0"
         inkscape:rounded="0.21"
         inkscape:flatsided="false"
         sodipodi:arg2="2.7143336"
         sodipodi:arg1="2.2655346"
         sodipodi:r2="44.629997"
         sodipodi:r1="89.259995"
         sodipodi:cy="386.64789"
         sodipodi:cx="-771.42859"
         sodipodi:sides="7"
         id="path5758"
         style="fill:#ff00ff;stroke:#000000;stroke-width:1;stroke-miterlimit:4;stroke-opacity:1;stroke-dasharray:1, 48;stroke-dashoffset:0"
         sodipodi:type="star" />
      <path
         transform="translate(1317.7143,-289.14286)"
         d="m -865.7143,449.50504 a 15.714286,14.285714 0 1 1 -31.42857,0 15.714286,14.285714 0 1 1 31.42857,0 z"
         sodipodi:ry="14.285714"
         sodipodi:rx="15.714286"
         sodipodi:cy="449.50504"
         sodipodi:cx="-881.42859"
         id="path5760"
         style="fill:#ffff00;stroke:#000000;stroke-width:1;stroke-miterlimit:4;stroke-opacity:1;stroke-dasharray:1, 48;stroke-dashoffset:0"
         sodipodi:type="arc" />
    </g>
  </g>
</svg>
