<?xml version="1.0" encoding="UTF-8" standalone="no"?>
<!-- Created with Inkscape (http://www.inkscape.org/) -->

<svg
   xmlns:dc="http://purl.org/dc/elements/1.1/"
   xmlns:cc="http://creativecommons.org/ns#"
   xmlns:rdf="http://www.w3.org/1999/02/22-rdf-syntax-ns#"
   xmlns:svg="http://www.w3.org/2000/svg"
   xmlns="http://www.w3.org/2000/svg"
   xmlns:sodipodi="http://sodipodi.sourceforge.net/DTD/sodipodi-0.dtd"
   xmlns:inkscape="http://www.inkscape.org/namespaces/inkscape"
   width="466.76492"
   height="418.49411"
   id="svg3833"
   version="1.1"
   inkscape:version="0.48.4 r9939"
   sodipodi:docname="New document 6">
  <defs
     id="defs3835" />
  <sodipodi:namedview
     id="base"
     pagecolor="#ffffff"
     bordercolor="#666666"
     borderopacity="1.0"
     inkscape:pageopacity="0.0"
     inkscape:pageshadow="2"
     inkscape:zoom="0.35"
     inkscape:cx="242.59843"
     inkscape:cy="159.34174"
     inkscape:document-units="px"
     inkscape:current-layer="layer1"
     showgrid="false"
     fit-margin-top="0"
     fit-margin-left="0"
     fit-margin-right="0"
     fit-margin-bottom="0"
     inkscape:window-width="1366"
     inkscape:window-height="705"
     inkscape:window-x="1352"
     inkscape:window-y="-8"
     inkscape:window-maximized="1" />
  <metadata
     id="metadata3838">
    <rdf:RDF>
      <cc:Work
         rdf:about="">
        <dc:format>image/svg+xml</dc:format>
        <dc:type
           rdf:resource="http://purl.org/dc/dcmitype/StillImage" />
        <dc:title></dc:title>
      </cc:Work>
    </rdf:RDF>
  </metadata>
  <g
     inkscape:label="Layer 1"
     inkscape:groupmode="layer"
     id="layer1"
     transform="translate(-132.40157,-273.20982)">
    <g
       id="g5523">
      <path
         id="path3841"
         d="m 335.65625,280.625 c -84.05297,6.52522 -163.43941,63.87641 -191.81741,143.94259 -25.73256,75.10394 2.861,164.61117 66.61061,211.68572 80.42388,64.69968 202.30557,71.60331 289.0818,15.40294 51.42566,-32.37916 90.78663,-87.06863 96.63375,-148.47375 6.7139,-62.77371 -20.77696,-127.63972 -69.83107,-167.21129 -34.07124,-29.49647 -77.16372,-50.72195 -122.74034,-52.3362 -20.66522,4.37404 -42.80714,5.2182 -62.74984,-2.66626 -1.7124,-0.2499 -3.45603,-0.41905 -5.1875,-0.34375 z"
         style="fill:#ff5200;fill-opacity:1;stroke:#696764;stroke-width:4;stroke-linejoin:bevel;stroke-miterlimit:4;stroke-opacity:0;stroke-dashoffset:0"
         inkscape:connector-curvature="0" />
      <path
         transform="translate(208.57143,111.42857)"
         d="m 182.85715,172.36218 c 0,4.73387 -8.95431,8.57143 -20,8.57143 -11.0457,0 -20,-3.83756 -20,-8.57143 0,-4.73387 8.9543,-8.57143 20,-8.57143 11.04569,0 20,3.83756 20,8.57143 z"
         sodipodi:ry="8.5714283"
         sodipodi:rx="20"
         sodipodi:cy="172.36218"
         sodipodi:cx="162.85715"
         id="path4351"
         style="fill:#2b1100;fill-opacity:1;stroke:#696764;stroke-width:4;stroke-linejoin:bevel;stroke-miterlimit:4;stroke-opacity:0;stroke-dasharray:none;stroke-dashoffset:0"
         sodipodi:type="arc" />
      <path
         transform="matrix(0.48330476,0,0,0.56859386,546.98262,119.13062)"
         d="m -579.99998,488.07648 c 0,13.41263 -12.79187,24.28571 -28.57143,24.28571 -15.77957,0 -28.57143,-10.87308 -28.57143,-24.28571 0,-13.41263 12.79186,-24.28572 28.57143,-24.28572 15.77956,0 28.57143,10.87309 28.57143,24.28572 z"
         sodipodi:ry="24.285715"
         sodipodi:rx="28.571428"
         sodipodi:cy="488.07648"
         sodipodi:cx="-608.57141"
         id="path5055"
         style="fill:#f34e00;fill-opacity:0.59064331;stroke:#4e3400;stroke-width:4;stroke-linejoin:bevel;stroke-miterlimit:4;stroke-opacity:0.22807019;stroke-dasharray:none;stroke-dashoffset:0"
         sodipodi:type="arc" />
      <path
         transform="matrix(0.48330476,0,0,0.56859386,736.9826,180.55918)"
         d="m -579.99998,488.07648 c 0,13.41263 -12.79187,24.28571 -28.57143,24.28571 -15.77957,0 -28.57143,-10.87308 -28.57143,-24.28571 0,-13.41263 12.79186,-24.28572 28.57143,-24.28572 15.77956,0 28.57143,10.87309 28.57143,24.28572 z"
         sodipodi:ry="24.285715"
         sodipodi:rx="28.571428"
         sodipodi:cy="488.07648"
         sodipodi:cx="-608.57141"
         id="path5055-3"
         style="fill:#f34e00;fill-opacity:0.59064331;stroke:#4e3400;stroke-width:4;stroke-linejoin:bevel;stroke-miterlimit:4;stroke-opacity:0.22807019;stroke-dasharray:none;stroke-dashoffset:0"
         sodipodi:type="arc" />
      <path
         transform="matrix(0.48330476,0,0,0.56859386,582.69689,297.70204)"
         d="m -579.99998,488.07648 c 0,13.41263 -12.79187,24.28571 -28.57143,24.28571 -15.77957,0 -28.57143,-10.87308 -28.57143,-24.28571 0,-13.41263 12.79186,-24.28572 28.57143,-24.28572 15.77956,0 28.57143,10.87309 28.57143,24.28572 z"
         sodipodi:ry="24.285715"
         sodipodi:rx="28.571428"
         sodipodi:cy="488.07648"
         sodipodi:cx="-608.57141"
         id="path5055-33"
         style="fill:#f34e00;fill-opacity:0.59064331;stroke:#4e3400;stroke-width:4;stroke-linejoin:bevel;stroke-miterlimit:4;stroke-opacity:0.22807019;stroke-dasharray:none;stroke-dashoffset:0"
         sodipodi:type="arc" />
      <path
         transform="matrix(0.48330476,0,0,0.56859386,634.12546,191.98775)"
         d="m -579.99998,488.07648 c 0,13.41263 -12.79187,24.28571 -28.57143,24.28571 -15.77957,0 -28.57143,-10.87308 -28.57143,-24.28571 0,-13.41263 12.79186,-24.28572 28.57143,-24.28572 15.77956,0 28.57143,10.87309 28.57143,24.28572 z"
         sodipodi:ry="24.285715"
         sodipodi:rx="28.571428"
         sodipodi:cy="488.07648"
         sodipodi:cx="-608.57141"
         id="path5055-7"
         style="fill:#f34e00;fill-opacity:0.59064331;stroke:#4e3400;stroke-width:4;stroke-linejoin:bevel;stroke-miterlimit:4;stroke-opacity:0.22807019;stroke-dasharray:none;stroke-dashoffset:0"
         sodipodi:type="arc" />
      <path
         transform="matrix(0.48330476,0,0,0.56859386,645.55403,60.55918)"
         d="m -579.99998,488.07648 c 0,13.41263 -12.79187,24.28571 -28.57143,24.28571 -15.77957,0 -28.57143,-10.87308 -28.57143,-24.28571 0,-13.41263 12.79186,-24.28572 28.57143,-24.28572 15.77956,0 28.57143,10.87309 28.57143,24.28572 z"
         sodipodi:ry="24.285715"
         sodipodi:rx="28.571428"
         sodipodi:cy="488.07648"
         sodipodi:cx="-608.57141"
         id="path5055-4"
         style="fill:#f34e00;fill-opacity:0.59064331;stroke:#4e3400;stroke-width:4;stroke-linejoin:bevel;stroke-miterlimit:4;stroke-opacity:0.22807019;stroke-dasharray:none;stroke-dashoffset:0"
         sodipodi:type="arc" />
      <path
         transform="matrix(0.48330476,0,0,0.56859386,731.26832,80.55918)"
         d="m -579.99998,488.07648 c 0,13.41263 -12.79187,24.28571 -28.57143,24.28571 -15.77957,0 -28.57143,-10.87308 -28.57143,-24.28571 0,-13.41263 12.79186,-24.28572 28.57143,-24.28572 15.77956,0 28.57143,10.87309 28.57143,24.28572 z"
         sodipodi:ry="24.285715"
         sodipodi:rx="28.571428"
         sodipodi:cy="488.07648"
         sodipodi:cx="-608.57141"
         id="path5055-38"
         style="fill:#f34e00;fill-opacity:0.59064331;stroke:#4e3400;stroke-width:4;stroke-linejoin:bevel;stroke-miterlimit:4;stroke-opacity:0.22807019;stroke-dasharray:none;stroke-dashoffset:0"
         sodipodi:type="arc" />
      <path
         transform="matrix(0.48330476,0,0,0.56859386,602.69689,186.27347)"
         d="m -579.99998,488.07648 c 0,13.41263 -12.79187,24.28571 -28.57143,24.28571 -15.77957,0 -28.57143,-10.87308 -28.57143,-24.28571 0,-13.41263 12.79186,-24.28572 28.57143,-24.28572 15.77956,0 28.57143,10.87309 28.57143,24.28572 z"
         sodipodi:ry="24.285715"
         sodipodi:rx="28.571428"
         sodipodi:cy="488.07648"
         sodipodi:cx="-608.57141"
         id="path5055-0"
         style="fill:#f34e00;fill-opacity:0.59064331;stroke:#4e3400;stroke-width:4;stroke-linejoin:bevel;stroke-miterlimit:4;stroke-opacity:0.22807019;stroke-dasharray:none;stroke-dashoffset:0"
         sodipodi:type="arc" />
      <path
         transform="matrix(0.48330476,0,0,0.56859386,531.26832,226.27347)"
         d="m -579.99998,488.07648 c 0,13.41263 -12.79187,24.28571 -28.57143,24.28571 -15.77957,0 -28.57143,-10.87308 -28.57143,-24.28571 0,-13.41263 12.79186,-24.28572 28.57143,-24.28572 15.77956,0 28.57143,10.87309 28.57143,24.28572 z"
         sodipodi:ry="24.285715"
         sodipodi:rx="28.571428"
         sodipodi:cy="488.07648"
         sodipodi:cx="-608.57141"
         id="path5055-8"
         style="fill:#f34e00;fill-opacity:0.59064331;stroke:#4e3400;stroke-width:4;stroke-linejoin:bevel;stroke-miterlimit:4;stroke-opacity:0.22807019;stroke-dasharray:none;stroke-dashoffset:0"
         sodipodi:type="arc" />
      <path
         transform="matrix(0.48330476,0,0,0.56859386,674.12546,274.84489)"
         d="m -579.99998,488.07648 c 0,13.41263 -12.79187,24.28571 -28.57143,24.28571 -15.77957,0 -28.57143,-10.87308 -28.57143,-24.28571 0,-13.41263 12.79186,-24.28572 28.57143,-24.28572 15.77956,0 28.57143,10.87309 28.57143,24.28572 z"
         sodipodi:ry="24.285715"
         sodipodi:rx="28.571428"
         sodipodi:cy="488.07648"
         sodipodi:cx="-608.57141"
         id="path5055-80"
         style="fill:#f34e00;fill-opacity:0.59064331;stroke:#4e3400;stroke-width:4;stroke-linejoin:bevel;stroke-miterlimit:4;stroke-opacity:0.22807019;stroke-dasharray:none;stroke-dashoffset:0"
         sodipodi:type="arc" />
      <path
         transform="matrix(0.48330476,0,0,0.56859386,688.41117,297.70204)"
         d="m -579.99998,488.07648 c 0,13.41263 -12.79187,24.28571 -28.57143,24.28571 -15.77957,0 -28.57143,-10.87308 -28.57143,-24.28571 0,-13.41263 12.79186,-24.28572 28.57143,-24.28572 15.77956,0 28.57143,10.87309 28.57143,24.28572 z"
         sodipodi:ry="24.285715"
         sodipodi:rx="28.571428"
         sodipodi:cy="488.07648"
         sodipodi:cx="-608.57141"
         id="path5055-6"
         style="fill:#f34e00;fill-opacity:0.59064331;stroke:#4e3400;stroke-width:4;stroke-linejoin:bevel;stroke-miterlimit:4;stroke-opacity:0.22807019;stroke-dasharray:none;stroke-dashoffset:0"
         sodipodi:type="arc" />
      <path
         transform="matrix(0.48330476,0,0,0.56859386,668.41117,154.84489)"
         d="m -579.99998,488.07648 c 0,13.41263 -12.79187,24.28571 -28.57143,24.28571 -15.77957,0 -28.57143,-10.87308 -28.57143,-24.28571 0,-13.41263 12.79186,-24.28572 28.57143,-24.28572 15.77956,0 28.57143,10.87309 28.57143,24.28572 z"
         sodipodi:ry="24.285715"
         sodipodi:rx="28.571428"
         sodipodi:cy="488.07648"
         sodipodi:cx="-608.57141"
         id="path5055-81"
         style="fill:#f34e00;fill-opacity:0.59064331;stroke:#4e3400;stroke-width:4;stroke-linejoin:bevel;stroke-miterlimit:4;stroke-opacity:0.22807019;stroke-dasharray:none;stroke-dashoffset:0"
         sodipodi:type="arc" />
      <path
         transform="matrix(0.48330476,0,0,0.56859386,708.41117,120.55918)"
         d="m -579.99998,488.07648 c 0,13.41263 -12.79187,24.28571 -28.57143,24.28571 -15.77957,0 -28.57143,-10.87308 -28.57143,-24.28571 0,-13.41263 12.79186,-24.28572 28.57143,-24.28572 15.77956,0 28.57143,10.87309 28.57143,24.28572 z"
         sodipodi:ry="24.285715"
         sodipodi:rx="28.571428"
         sodipodi:cy="488.07648"
         sodipodi:cx="-608.57141"
         id="path5055-9"
         style="fill:#f34e00;fill-opacity:0.59064331;stroke:#4e3400;stroke-width:4;stroke-linejoin:bevel;stroke-miterlimit:4;stroke-opacity:0.22807019;stroke-dasharray:none;stroke-dashoffset:0"
         sodipodi:type="arc" />
      <path
         transform="matrix(0.48330476,0,0,0.56859386,656.9826,166.27347)"
         d="m -579.99998,488.07648 c 0,13.41263 -12.79187,24.28571 -28.57143,24.28571 -15.77957,0 -28.57143,-10.87308 -28.57143,-24.28571 0,-13.41263 12.79186,-24.28572 28.57143,-24.28572 15.77956,0 28.57143,10.87309 28.57143,24.28572 z"
         sodipodi:ry="24.285715"
         sodipodi:rx="28.571428"
         sodipodi:cy="488.07648"
         sodipodi:cx="-608.57141"
         id="path5055-89"
         style="fill:#f34e00;fill-opacity:0.59064331;stroke:#4e3400;stroke-width:4;stroke-linejoin:bevel;stroke-miterlimit:4;stroke-opacity:0.22807019;stroke-dasharray:none;stroke-dashoffset:0"
         sodipodi:type="arc" />
      <path
         transform="matrix(0.48330476,0,0,0.56859386,551.26832,194.84489)"
         d="m -579.99998,488.07648 c 0,13.41263 -12.79187,24.28571 -28.57143,24.28571 -15.77957,0 -28.57143,-10.87308 -28.57143,-24.28571 0,-13.41263 12.79186,-24.28572 28.57143,-24.28572 15.77956,0 28.57143,10.87309 28.57143,24.28572 z"
         sodipodi:ry="24.285715"
         sodipodi:rx="28.571428"
         sodipodi:cy="488.07648"
         sodipodi:cx="-608.57141"
         id="path5055-72"
         style="fill:#f34e00;fill-opacity:0.59064331;stroke:#4e3400;stroke-width:4;stroke-linejoin:bevel;stroke-miterlimit:4;stroke-opacity:0.22807019;stroke-dasharray:none;stroke-dashoffset:0"
         sodipodi:type="arc" />
      <path
         transform="matrix(0.48330476,0,0,0.56859386,688.41117,260.55918)"
         d="m -579.99998,488.07648 c 0,13.41263 -12.79187,24.28571 -28.57143,24.28571 -15.77957,0 -28.57143,-10.87308 -28.57143,-24.28571 0,-13.41263 12.79186,-24.28572 28.57143,-24.28572 15.77956,0 28.57143,10.87309 28.57143,24.28572 z"
         sodipodi:ry="24.285715"
         sodipodi:rx="28.571428"
         sodipodi:cy="488.07648"
         sodipodi:cx="-608.57141"
         id="path5055-2"
         style="fill:#f34e00;fill-opacity:0.59064331;stroke:#4e3400;stroke-width:4;stroke-linejoin:bevel;stroke-miterlimit:4;stroke-opacity:0.22807019;stroke-dasharray:none;stroke-dashoffset:0"
         sodipodi:type="arc" />
      <path
         transform="matrix(0.48330476,0,0,0.56859386,605.55403,220.55918)"
         d="m -579.99998,488.07648 c 0,13.41263 -12.79187,24.28571 -28.57143,24.28571 -15.77957,0 -28.57143,-10.87308 -28.57143,-24.28571 0,-13.41263 12.79186,-24.28572 28.57143,-24.28572 15.77956,0 28.57143,10.87309 28.57143,24.28572 z"
         sodipodi:ry="24.285715"
         sodipodi:rx="28.571428"
         sodipodi:cy="488.07648"
         sodipodi:cx="-608.57141"
         id="path5055-82"
         style="fill:#f34e00;fill-opacity:0.59064331;stroke:#4e3400;stroke-width:4;stroke-linejoin:bevel;stroke-miterlimit:4;stroke-opacity:0.22807019;stroke-dasharray:none;stroke-dashoffset:0"
         sodipodi:type="arc" />
      <path
         transform="matrix(0.48330476,0,0,0.56859386,645.55403,189.13061)"
         d="m -579.99998,488.07648 c 0,13.41263 -12.79187,24.28571 -28.57143,24.28571 -15.77957,0 -28.57143,-10.87308 -28.57143,-24.28571 0,-13.41263 12.79186,-24.28572 28.57143,-24.28572 15.77956,0 28.57143,10.87309 28.57143,24.28572 z"
         sodipodi:ry="24.285715"
         sodipodi:rx="28.571428"
         sodipodi:cy="488.07648"
         sodipodi:cx="-608.57141"
         id="path5055-890"
         style="fill:#f34e00;fill-opacity:0.59064331;stroke:#4e3400;stroke-width:4;stroke-linejoin:bevel;stroke-miterlimit:4;stroke-opacity:0.22807019;stroke-dasharray:none;stroke-dashoffset:0"
         sodipodi:type="arc" />
      <path
         transform="matrix(0.48330476,0,0,0.56859386,651.26832,111.98775)"
         d="m -579.99998,488.07648 c 0,13.41263 -12.79187,24.28571 -28.57143,24.28571 -15.77957,0 -28.57143,-10.87308 -28.57143,-24.28571 0,-13.41263 12.79186,-24.28572 28.57143,-24.28572 15.77956,0 28.57143,10.87309 28.57143,24.28572 z"
         sodipodi:ry="24.285715"
         sodipodi:rx="28.571428"
         sodipodi:cy="488.07648"
         sodipodi:cx="-608.57141"
         id="path5055-78"
         style="fill:#f34e00;fill-opacity:0.59064331;stroke:#4e3400;stroke-width:4;stroke-linejoin:bevel;stroke-miterlimit:4;stroke-opacity:0.22807019;stroke-dasharray:none;stroke-dashoffset:0"
         sodipodi:type="arc" />
      <path
         transform="matrix(0.48330476,0,0,0.56859386,534.12546,137.70204)"
         d="m -579.99998,488.07648 c 0,13.41263 -12.79187,24.28571 -28.57143,24.28571 -15.77957,0 -28.57143,-10.87308 -28.57143,-24.28571 0,-13.41263 12.79186,-24.28572 28.57143,-24.28572 15.77956,0 28.57143,10.87309 28.57143,24.28572 z"
         sodipodi:ry="24.285715"
         sodipodi:rx="28.571428"
         sodipodi:cy="488.07648"
         sodipodi:cx="-608.57141"
         id="path5055-1"
         style="fill:#f34e00;fill-opacity:0.59064331;stroke:#4e3400;stroke-width:4;stroke-linejoin:bevel;stroke-miterlimit:4;stroke-opacity:0.22807019;stroke-dasharray:none;stroke-dashoffset:0"
         sodipodi:type="arc" />
      <path
         transform="matrix(0.48330476,0,0,0.56859386,739.83975,237.70204)"
         d="m -579.99998,488.07648 c 0,13.41263 -12.79187,24.28571 -28.57143,24.28571 -15.77957,0 -28.57143,-10.87308 -28.57143,-24.28571 0,-13.41263 12.79186,-24.28572 28.57143,-24.28572 15.77956,0 28.57143,10.87309 28.57143,24.28572 z"
         sodipodi:ry="24.285715"
         sodipodi:rx="28.571428"
         sodipodi:cy="488.07648"
         sodipodi:cx="-608.57141"
         id="path5055-5"
         style="fill:#f34e00;fill-opacity:0.59064331;stroke:#4e3400;stroke-width:4;stroke-linejoin:bevel;stroke-miterlimit:4;stroke-opacity:0.22807019;stroke-dasharray:none;stroke-dashoffset:0"
         sodipodi:type="arc" />
      <path
         transform="matrix(0.48330476,0,0,0.56859386,745.55403,157.70204)"
         d="m -579.99998,488.07648 c 0,13.41263 -12.79187,24.28571 -28.57143,24.28571 -15.77957,0 -28.57143,-10.87308 -28.57143,-24.28571 0,-13.41263 12.79186,-24.28572 28.57143,-24.28572 15.77956,0 28.57143,10.87309 28.57143,24.28572 z"
         sodipodi:ry="24.285715"
         sodipodi:rx="28.571428"
         sodipodi:cy="488.07648"
         sodipodi:cx="-608.57141"
         id="path5055-86"
         style="fill:#f34e00;fill-opacity:0.59064331;stroke:#4e3400;stroke-width:4;stroke-linejoin:bevel;stroke-miterlimit:4;stroke-opacity:0.22807019;stroke-dasharray:none;stroke-dashoffset:0"
         sodipodi:type="arc" />
      <path
         transform="matrix(0.48330476,0,0,0.56859386,814.12546,203.41632)"
         d="m -579.99998,488.07648 c 0,13.41263 -12.79187,24.28571 -28.57143,24.28571 -15.77957,0 -28.57143,-10.87308 -28.57143,-24.28571 0,-13.41263 12.79186,-24.28572 28.57143,-24.28572 15.77956,0 28.57143,10.87309 28.57143,24.28572 z"
         sodipodi:ry="24.285715"
         sodipodi:rx="28.571428"
         sodipodi:cy="488.07648"
         sodipodi:cx="-608.57141"
         id="path5055-12"
         style="fill:#f34e00;fill-opacity:0.59064331;stroke:#4e3400;stroke-width:4;stroke-linejoin:bevel;stroke-miterlimit:4;stroke-opacity:0.22807019;stroke-dasharray:none;stroke-dashoffset:0"
         sodipodi:type="arc" />
      <path
         transform="matrix(0.48330476,0,0,0.56859386,719.83975,240.55918)"
         d="m -579.99998,488.07648 c 0,13.41263 -12.79187,24.28571 -28.57143,24.28571 -15.77957,0 -28.57143,-10.87308 -28.57143,-24.28571 0,-13.41263 12.79186,-24.28572 28.57143,-24.28572 15.77956,0 28.57143,10.87309 28.57143,24.28572 z"
         sodipodi:ry="24.285715"
         sodipodi:rx="28.571428"
         sodipodi:cy="488.07648"
         sodipodi:cx="-608.57141"
         id="path5055-42"
         style="fill:#f34e00;fill-opacity:0.59064331;stroke:#4e3400;stroke-width:4;stroke-linejoin:bevel;stroke-miterlimit:4;stroke-opacity:0.22807019;stroke-dasharray:none;stroke-dashoffset:0"
         sodipodi:type="arc" />
      <path
         transform="matrix(0.48330476,0,0,0.56859386,599.83975,257.70204)"
         d="m -579.99998,488.07648 c 0,13.41263 -12.79187,24.28571 -28.57143,24.28571 -15.77957,0 -28.57143,-10.87308 -28.57143,-24.28571 0,-13.41263 12.79186,-24.28572 28.57143,-24.28572 15.77956,0 28.57143,10.87309 28.57143,24.28572 z"
         sodipodi:ry="24.285715"
         sodipodi:rx="28.571428"
         sodipodi:cy="488.07648"
         sodipodi:cx="-608.57141"
         id="path5055-58"
         style="fill:#f34e00;fill-opacity:0.59064331;stroke:#4e3400;stroke-width:4;stroke-linejoin:bevel;stroke-miterlimit:4;stroke-opacity:0.22807019;stroke-dasharray:none;stroke-dashoffset:0"
         sodipodi:type="arc" />
      <path
         transform="matrix(0.48330476,0,0,0.56859386,568.41117,183.41632)"
         d="m -579.99998,488.07648 c 0,13.41263 -12.79187,24.28571 -28.57143,24.28571 -15.77957,0 -28.57143,-10.87308 -28.57143,-24.28571 0,-13.41263 12.79186,-24.28572 28.57143,-24.28572 15.77956,0 28.57143,10.87309 28.57143,24.28572 z"
         sodipodi:ry="24.285715"
         sodipodi:rx="28.571428"
         sodipodi:cy="488.07648"
         sodipodi:cx="-608.57141"
         id="path5055-62"
         style="fill:#f34e00;fill-opacity:0.59064331;stroke:#4e3400;stroke-width:4;stroke-linejoin:bevel;stroke-miterlimit:4;stroke-opacity:0.22807019;stroke-dasharray:none;stroke-dashoffset:0"
         sodipodi:type="arc" />
      <path
         transform="matrix(0.48330476,0,0,0.56859386,588.41117,146.27347)"
         d="m -579.99998,488.07648 c 0,13.41263 -12.79187,24.28571 -28.57143,24.28571 -15.77957,0 -28.57143,-10.87308 -28.57143,-24.28571 0,-13.41263 12.79186,-24.28572 28.57143,-24.28572 15.77956,0 28.57143,10.87309 28.57143,24.28572 z"
         sodipodi:ry="24.285715"
         sodipodi:rx="28.571428"
         sodipodi:cy="488.07648"
         sodipodi:cx="-608.57141"
         id="path5055-65"
         style="fill:#f34e00;fill-opacity:0.59064331;stroke:#4e3400;stroke-width:4;stroke-linejoin:bevel;stroke-miterlimit:4;stroke-opacity:0.22807019;stroke-dasharray:none;stroke-dashoffset:0"
         sodipodi:type="arc" />
      <path
         transform="matrix(0.48330476,0,0,0.56859386,594.12546,114.84489)"
         d="m -579.99998,488.07648 c 0,13.41263 -12.79187,24.28571 -28.57143,24.28571 -15.77957,0 -28.57143,-10.87308 -28.57143,-24.28571 0,-13.41263 12.79186,-24.28572 28.57143,-24.28572 15.77956,0 28.57143,10.87309 28.57143,24.28572 z"
         sodipodi:ry="24.285715"
         sodipodi:rx="28.571428"
         sodipodi:cy="488.07648"
         sodipodi:cx="-608.57141"
         id="path5055-39"
         style="fill:#f34e00;fill-opacity:0.59064331;stroke:#4e3400;stroke-width:4;stroke-linejoin:bevel;stroke-miterlimit:4;stroke-opacity:0.22807019;stroke-dasharray:none;stroke-dashoffset:0"
         sodipodi:type="arc" />
      <path
         transform="matrix(0.48330476,0,0,0.56859386,596.9826,49.130609)"
         d="m -579.99998,488.07648 c 0,13.41263 -12.79187,24.28571 -28.57143,24.28571 -15.77957,0 -28.57143,-10.87308 -28.57143,-24.28571 0,-13.41263 12.79186,-24.28572 28.57143,-24.28572 15.77956,0 28.57143,10.87309 28.57143,24.28572 z"
         sodipodi:ry="24.285715"
         sodipodi:rx="28.571428"
         sodipodi:cy="488.07648"
         sodipodi:cx="-608.57141"
         id="path5055-24"
         style="fill:#f34e00;fill-opacity:0.59064331;stroke:#4e3400;stroke-width:4;stroke-linejoin:bevel;stroke-miterlimit:4;stroke-opacity:0.22807019;stroke-dasharray:none;stroke-dashoffset:0"
         sodipodi:type="arc" />
      <path
         transform="matrix(0.48330476,0,0,0.56859386,584.41117,34.55918)"
         d="m -579.99998,488.07648 c 0,13.41263 -12.79187,24.28571 -28.57143,24.28571 -15.77957,0 -28.57143,-10.87308 -28.57143,-24.28571 0,-13.41263 12.79186,-24.28572 28.57143,-24.28572 15.77956,0 28.57143,10.87309 28.57143,24.28572 z"
         sodipodi:ry="24.285715"
         sodipodi:rx="28.571428"
         sodipodi:cy="488.07648"
         sodipodi:cx="-608.57141"
         id="path5055-61"
         style="fill:#f34e00;fill-opacity:0.59064331;stroke:#4e3400;stroke-width:4;stroke-linejoin:bevel;stroke-miterlimit:4;stroke-opacity:0.22807019;stroke-dasharray:none;stroke-dashoffset:0"
         sodipodi:type="arc" />
      <path
         transform="matrix(0.48330476,0,0,0.56859386,505.55403,86.273466)"
         d="m -579.99998,488.07648 c 0,13.41263 -12.79187,24.28571 -28.57143,24.28571 -15.77957,0 -28.57143,-10.87308 -28.57143,-24.28571 0,-13.41263 12.79186,-24.28572 28.57143,-24.28572 15.77956,0 28.57143,10.87309 28.57143,24.28572 z"
         sodipodi:ry="24.285715"
         sodipodi:rx="28.571428"
         sodipodi:cy="488.07648"
         sodipodi:cx="-608.57141"
         id="path5055-821"
         style="fill:#f34e00;fill-opacity:0.59064331;stroke:#4e3400;stroke-width:4;stroke-linejoin:bevel;stroke-miterlimit:4;stroke-opacity:0.22807019;stroke-dasharray:none;stroke-dashoffset:0"
         sodipodi:type="arc" />
      <path
         transform="matrix(0.48330476,0,0,0.56859386,462.69689,174.84489)"
         d="m -579.99998,488.07648 c 0,13.41263 -12.79187,24.28571 -28.57143,24.28571 -15.77957,0 -28.57143,-10.87308 -28.57143,-24.28571 0,-13.41263 12.79186,-24.28572 28.57143,-24.28572 15.77956,0 28.57143,10.87309 28.57143,24.28572 z"
         sodipodi:ry="24.285715"
         sodipodi:rx="28.571428"
         sodipodi:cy="488.07648"
         sodipodi:cx="-608.57141"
         id="path5055-19"
         style="fill:#f34e00;fill-opacity:0.59064331;stroke:#4e3400;stroke-width:4;stroke-linejoin:bevel;stroke-miterlimit:4;stroke-opacity:0.22807019;stroke-dasharray:none;stroke-dashoffset:0"
         sodipodi:type="arc" />
      <path
         transform="matrix(0.48330476,0,0,0.56859386,508.41117,260.55918)"
         d="m -579.99998,488.07648 c 0,13.41263 -12.79187,24.28571 -28.57143,24.28571 -15.77957,0 -28.57143,-10.87308 -28.57143,-24.28571 0,-13.41263 12.79186,-24.28572 28.57143,-24.28572 15.77956,0 28.57143,10.87309 28.57143,24.28572 z"
         sodipodi:ry="24.285715"
         sodipodi:rx="28.571428"
         sodipodi:cy="488.07648"
         sodipodi:cx="-608.57141"
         id="path5055-76"
         style="fill:#f34e00;fill-opacity:0.59064331;stroke:#4e3400;stroke-width:4;stroke-linejoin:bevel;stroke-miterlimit:4;stroke-opacity:0.22807019;stroke-dasharray:none;stroke-dashoffset:0"
         sodipodi:type="arc" />
      <path
         transform="matrix(0.48330476,0,0,0.56859386,499.83975,317.70204)"
         d="m -579.99998,488.07648 c 0,13.41263 -12.79187,24.28571 -28.57143,24.28571 -15.77957,0 -28.57143,-10.87308 -28.57143,-24.28571 0,-13.41263 12.79186,-24.28572 28.57143,-24.28572 15.77956,0 28.57143,10.87309 28.57143,24.28572 z"
         sodipodi:ry="24.285715"
         sodipodi:rx="28.571428"
         sodipodi:cy="488.07648"
         sodipodi:cx="-608.57141"
         id="path5055-29"
         style="fill:#f34e00;fill-opacity:0.59064331;stroke:#4e3400;stroke-width:4;stroke-linejoin:bevel;stroke-miterlimit:4;stroke-opacity:0.22807019;stroke-dasharray:none;stroke-dashoffset:0"
         sodipodi:type="arc" />
      <path
         transform="matrix(0.48330476,0,0,0.56859386,559.83975,346.27347)"
         d="m -579.99998,488.07648 c 0,13.41263 -12.79187,24.28571 -28.57143,24.28571 -15.77957,0 -28.57143,-10.87308 -28.57143,-24.28571 0,-13.41263 12.79186,-24.28572 28.57143,-24.28572 15.77956,0 28.57143,10.87309 28.57143,24.28572 z"
         sodipodi:ry="24.285715"
         sodipodi:rx="28.571428"
         sodipodi:cy="488.07648"
         sodipodi:cx="-608.57141"
         id="path5055-52"
         style="fill:#f34e00;fill-opacity:0.59064331;stroke:#4e3400;stroke-width:4;stroke-linejoin:bevel;stroke-miterlimit:4;stroke-opacity:0.22807019;stroke-dasharray:none;stroke-dashoffset:0"
         sodipodi:type="arc" />
      <path
         transform="matrix(0.48330476,0,0,0.56859386,625.55403,374.84489)"
         d="m -579.99998,488.07648 c 0,13.41263 -12.79187,24.28571 -28.57143,24.28571 -15.77957,0 -28.57143,-10.87308 -28.57143,-24.28571 0,-13.41263 12.79186,-24.28572 28.57143,-24.28572 15.77956,0 28.57143,10.87309 28.57143,24.28572 z"
         sodipodi:ry="24.285715"
         sodipodi:rx="28.571428"
         sodipodi:cy="488.07648"
         sodipodi:cx="-608.57141"
         id="path5055-00"
         style="fill:#f34e00;fill-opacity:0.59064331;stroke:#4e3400;stroke-width:4;stroke-linejoin:bevel;stroke-miterlimit:4;stroke-opacity:0.22807019;stroke-dasharray:none;stroke-dashoffset:0"
         sodipodi:type="arc" />
      <path
         transform="matrix(0.48330476,0,0,0.56859386,691.26832,383.41632)"
         d="m -579.99998,488.07648 c 0,13.41263 -12.79187,24.28571 -28.57143,24.28571 -15.77957,0 -28.57143,-10.87308 -28.57143,-24.28571 0,-13.41263 12.79186,-24.28572 28.57143,-24.28572 15.77956,0 28.57143,10.87309 28.57143,24.28572 z"
         sodipodi:ry="24.285715"
         sodipodi:rx="28.571428"
         sodipodi:cy="488.07648"
         sodipodi:cx="-608.57141"
         id="path5055-391"
         style="fill:#f34e00;fill-opacity:0.59064331;stroke:#4e3400;stroke-width:4;stroke-linejoin:bevel;stroke-miterlimit:4;stroke-opacity:0.22807019;stroke-dasharray:none;stroke-dashoffset:0"
         sodipodi:type="arc" />
      <path
         transform="matrix(0.48330476,0,0,0.56859386,748.41117,363.41632)"
         d="m -579.99998,488.07648 c 0,13.41263 -12.79187,24.28571 -28.57143,24.28571 -15.77957,0 -28.57143,-10.87308 -28.57143,-24.28571 0,-13.41263 12.79186,-24.28572 28.57143,-24.28572 15.77956,0 28.57143,10.87309 28.57143,24.28572 z"
         sodipodi:ry="24.285715"
         sodipodi:rx="28.571428"
         sodipodi:cy="488.07648"
         sodipodi:cx="-608.57141"
         id="path5055-819"
         style="fill:#f34e00;fill-opacity:0.59064331;stroke:#4e3400;stroke-width:4;stroke-linejoin:bevel;stroke-miterlimit:4;stroke-opacity:0.22807019;stroke-dasharray:none;stroke-dashoffset:0"
         sodipodi:type="arc" />
      <path
         transform="matrix(0.48330476,0,0,0.56859386,799.83975,329.13061)"
         d="m -579.99998,488.07648 c 0,13.41263 -12.79187,24.28571 -28.57143,24.28571 -15.77957,0 -28.57143,-10.87308 -28.57143,-24.28571 0,-13.41263 12.79186,-24.28572 28.57143,-24.28572 15.77956,0 28.57143,10.87309 28.57143,24.28572 z"
         sodipodi:ry="24.285715"
         sodipodi:rx="28.571428"
         sodipodi:cy="488.07648"
         sodipodi:cx="-608.57141"
         id="path5055-53"
         style="fill:#f34e00;fill-opacity:0.59064331;stroke:#4e3400;stroke-width:4;stroke-linejoin:bevel;stroke-miterlimit:4;stroke-opacity:0.22807019;stroke-dasharray:none;stroke-dashoffset:0"
         sodipodi:type="arc" />
      <path
         transform="matrix(0.48330476,0,0,0.56859386,828.41117,277.70204)"
         d="m -579.99998,488.07648 c 0,13.41263 -12.79187,24.28571 -28.57143,24.28571 -15.77957,0 -28.57143,-10.87308 -28.57143,-24.28571 0,-13.41263 12.79186,-24.28572 28.57143,-24.28572 15.77956,0 28.57143,10.87309 28.57143,24.28572 z"
         sodipodi:ry="24.285715"
         sodipodi:rx="28.571428"
         sodipodi:cy="488.07648"
         sodipodi:cx="-608.57141"
         id="path5055-25"
         style="fill:#f34e00;fill-opacity:0.59064331;stroke:#4e3400;stroke-width:4;stroke-linejoin:bevel;stroke-miterlimit:4;stroke-opacity:0.22807019;stroke-dasharray:none;stroke-dashoffset:0"
         sodipodi:type="arc" />
      <path
         transform="matrix(0.48330476,0,0,0.56859386,845.55403,203.41632)"
         d="m -579.99998,488.07648 c 0,13.41263 -12.79187,24.28571 -28.57143,24.28571 -15.77957,0 -28.57143,-10.87308 -28.57143,-24.28571 0,-13.41263 12.79186,-24.28572 28.57143,-24.28572 15.77956,0 28.57143,10.87309 28.57143,24.28572 z"
         sodipodi:ry="24.285715"
         sodipodi:rx="28.571428"
         sodipodi:cy="488.07648"
         sodipodi:cx="-608.57141"
         id="path5055-258"
         style="fill:#f34e00;fill-opacity:0.59064331;stroke:#4e3400;stroke-width:4;stroke-linejoin:bevel;stroke-miterlimit:4;stroke-opacity:0.22807019;stroke-dasharray:none;stroke-dashoffset:0"
         sodipodi:type="arc" />
      <path
         transform="matrix(0.48330476,0,0,0.56859386,839.83975,131.98775)"
         d="m -579.99998,488.07648 c 0,13.41263 -12.79187,24.28571 -28.57143,24.28571 -15.77957,0 -28.57143,-10.87308 -28.57143,-24.28571 0,-13.41263 12.79186,-24.28572 28.57143,-24.28572 15.77956,0 28.57143,10.87309 28.57143,24.28572 z"
         sodipodi:ry="24.285715"
         sodipodi:rx="28.571428"
         sodipodi:cy="488.07648"
         sodipodi:cx="-608.57141"
         id="path5055-67"
         style="fill:#f34e00;fill-opacity:0.59064331;stroke:#4e3400;stroke-width:4;stroke-linejoin:bevel;stroke-miterlimit:4;stroke-opacity:0.22807019;stroke-dasharray:none;stroke-dashoffset:0"
         sodipodi:type="arc" />
      <path
         transform="matrix(0.48330476,0,0,0.56859386,811.26832,94.844895)"
         d="m -579.99998,488.07648 c 0,13.41263 -12.79187,24.28571 -28.57143,24.28571 -15.77957,0 -28.57143,-10.87308 -28.57143,-24.28571 0,-13.41263 12.79186,-24.28572 28.57143,-24.28572 15.77956,0 28.57143,10.87309 28.57143,24.28572 z"
         sodipodi:ry="24.285715"
         sodipodi:rx="28.571428"
         sodipodi:cy="488.07648"
         sodipodi:cx="-608.57141"
         id="path5055-722"
         style="fill:#f34e00;fill-opacity:0.59064331;stroke:#4e3400;stroke-width:4;stroke-linejoin:bevel;stroke-miterlimit:4;stroke-opacity:0.22807019;stroke-dasharray:none;stroke-dashoffset:0"
         sodipodi:type="arc" />
      <path
         transform="matrix(0.48330476,0,0,0.56859386,776.9826,163.41632)"
         d="m -579.99998,488.07648 c 0,13.41263 -12.79187,24.28571 -28.57143,24.28571 -15.77957,0 -28.57143,-10.87308 -28.57143,-24.28571 0,-13.41263 12.79186,-24.28572 28.57143,-24.28572 15.77956,0 28.57143,10.87309 28.57143,24.28572 z"
         sodipodi:ry="24.285715"
         sodipodi:rx="28.571428"
         sodipodi:cy="488.07648"
         sodipodi:cx="-608.57141"
         id="path5055-94"
         style="fill:#f34e00;fill-opacity:0.59064331;stroke:#4e3400;stroke-width:4;stroke-linejoin:bevel;stroke-miterlimit:4;stroke-opacity:0.22807019;stroke-dasharray:none;stroke-dashoffset:0"
         sodipodi:type="arc" />
      <path
         transform="matrix(0.48330476,0,0,0.56859386,745.55403,251.98775)"
         d="m -579.99998,488.07648 c 0,13.41263 -12.79187,24.28571 -28.57143,24.28571 -15.77957,0 -28.57143,-10.87308 -28.57143,-24.28571 0,-13.41263 12.79186,-24.28572 28.57143,-24.28572 15.77956,0 28.57143,10.87309 28.57143,24.28572 z"
         sodipodi:ry="24.285715"
         sodipodi:rx="28.571428"
         sodipodi:cy="488.07648"
         sodipodi:cx="-608.57141"
         id="path5055-196"
         style="fill:#f34e00;fill-opacity:0.59064331;stroke:#4e3400;stroke-width:4;stroke-linejoin:bevel;stroke-miterlimit:4;stroke-opacity:0.22807019;stroke-dasharray:none;stroke-dashoffset:0"
         sodipodi:type="arc" />
      <path
         transform="matrix(0.48330476,0,0,0.56859386,736.9826,289.13061)"
         d="m -579.99998,488.07648 c 0,13.41263 -12.79187,24.28571 -28.57143,24.28571 -15.77957,0 -28.57143,-10.87308 -28.57143,-24.28571 0,-13.41263 12.79186,-24.28572 28.57143,-24.28572 15.77956,0 28.57143,10.87309 28.57143,24.28572 z"
         sodipodi:ry="24.285715"
         sodipodi:rx="28.571428"
         sodipodi:cy="488.07648"
         sodipodi:cx="-608.57141"
         id="path5055-98"
         style="fill:#f34e00;fill-opacity:0.59064331;stroke:#4e3400;stroke-width:4;stroke-linejoin:bevel;stroke-miterlimit:4;stroke-opacity:0.22807019;stroke-dasharray:none;stroke-dashoffset:0"
         sodipodi:type="arc" />
      <path
         transform="matrix(0.48330476,0,0,0.56859386,702.69689,337.70204)"
         d="m -579.99998,488.07648 c 0,13.41263 -12.79187,24.28571 -28.57143,24.28571 -15.77957,0 -28.57143,-10.87308 -28.57143,-24.28571 0,-13.41263 12.79186,-24.28572 28.57143,-24.28572 15.77956,0 28.57143,10.87309 28.57143,24.28572 z"
         sodipodi:ry="24.285715"
         sodipodi:rx="28.571428"
         sodipodi:cy="488.07648"
         sodipodi:cx="-608.57141"
         id="path5055-255"
         style="fill:#f34e00;fill-opacity:0.59064331;stroke:#4e3400;stroke-width:4;stroke-linejoin:bevel;stroke-miterlimit:4;stroke-opacity:0.22807019;stroke-dasharray:none;stroke-dashoffset:0"
         sodipodi:type="arc" />
      <path
         transform="matrix(0.48330476,0,0,0.56859386,622.69689,326.27347)"
         d="m -579.99998,488.07648 c 0,13.41263 -12.79187,24.28571 -28.57143,24.28571 -15.77957,0 -28.57143,-10.87308 -28.57143,-24.28571 0,-13.41263 12.79186,-24.28572 28.57143,-24.28572 15.77956,0 28.57143,10.87309 28.57143,24.28572 z"
         sodipodi:ry="24.285715"
         sodipodi:rx="28.571428"
         sodipodi:cy="488.07648"
         sodipodi:cx="-608.57141"
         id="path5055-49"
         style="fill:#f34e00;fill-opacity:0.59064331;stroke:#4e3400;stroke-width:4;stroke-linejoin:bevel;stroke-miterlimit:4;stroke-opacity:0.22807019;stroke-dasharray:none;stroke-dashoffset:0"
         sodipodi:type="arc" />
      <path
         transform="matrix(0.48330476,0,0,0.56859386,622.69689,243.41632)"
         d="m -579.99998,488.07648 c 0,13.41263 -12.79187,24.28571 -28.57143,24.28571 -15.77957,0 -28.57143,-10.87308 -28.57143,-24.28571 0,-13.41263 12.79186,-24.28572 28.57143,-24.28572 15.77956,0 28.57143,10.87309 28.57143,24.28572 z"
         sodipodi:ry="24.285715"
         sodipodi:rx="28.571428"
         sodipodi:cy="488.07648"
         sodipodi:cx="-608.57141"
         id="path5055-125"
         style="fill:#f34e00;fill-opacity:0.59064331;stroke:#4e3400;stroke-width:4;stroke-linejoin:bevel;stroke-miterlimit:4;stroke-opacity:0.22807019;stroke-dasharray:none;stroke-dashoffset:0"
         sodipodi:type="arc" />
      <path
         transform="matrix(0.48330476,0,0,0.56859386,668.41117,206.27347)"
         d="m -579.99998,488.07648 c 0,13.41263 -12.79187,24.28571 -28.57143,24.28571 -15.77957,0 -28.57143,-10.87308 -28.57143,-24.28571 0,-13.41263 12.79186,-24.28572 28.57143,-24.28572 15.77956,0 28.57143,10.87309 28.57143,24.28572 z"
         sodipodi:ry="24.285715"
         sodipodi:rx="28.571428"
         sodipodi:cy="488.07648"
         sodipodi:cx="-608.57141"
         id="path5055-08"
         style="fill:#f34e00;fill-opacity:0.59064331;stroke:#4e3400;stroke-width:4;stroke-linejoin:bevel;stroke-miterlimit:4;stroke-opacity:0.22807019;stroke-dasharray:none;stroke-dashoffset:0"
         sodipodi:type="arc" />
      <path
         transform="matrix(0.48330476,0,0,0.56859386,739.83975,180.55918)"
         d="m -579.99998,488.07648 c 0,13.41263 -12.79187,24.28571 -28.57143,24.28571 -15.77957,0 -28.57143,-10.87308 -28.57143,-24.28571 0,-13.41263 12.79186,-24.28572 28.57143,-24.28572 15.77956,0 28.57143,10.87309 28.57143,24.28572 z"
         sodipodi:ry="24.285715"
         sodipodi:rx="28.571428"
         sodipodi:cy="488.07648"
         sodipodi:cx="-608.57141"
         id="path5055-393"
         style="fill:#f34e00;fill-opacity:0.59064331;stroke:#4e3400;stroke-width:4;stroke-linejoin:bevel;stroke-miterlimit:4;stroke-opacity:0.22807019;stroke-dasharray:none;stroke-dashoffset:0"
         sodipodi:type="arc" />
      <path
         transform="matrix(0.48330476,0,0,0.56859386,762.69689,226.27347)"
         d="m -579.99998,488.07648 c 0,13.41263 -12.79187,24.28571 -28.57143,24.28571 -15.77957,0 -28.57143,-10.87308 -28.57143,-24.28571 0,-13.41263 12.79186,-24.28572 28.57143,-24.28572 15.77956,0 28.57143,10.87309 28.57143,24.28572 z"
         sodipodi:ry="24.285715"
         sodipodi:rx="28.571428"
         sodipodi:cy="488.07648"
         sodipodi:cx="-608.57141"
         id="path5055-96"
         style="fill:#f34e00;fill-opacity:0.59064331;stroke:#4e3400;stroke-width:4;stroke-linejoin:bevel;stroke-miterlimit:4;stroke-opacity:0.22807019;stroke-dasharray:none;stroke-dashoffset:0"
         sodipodi:type="arc" />
      <path
         transform="matrix(0.48330476,0,0,0.56859386,762.69689,274.84489)"
         d="m -579.99998,488.07648 c 0,13.41263 -12.79187,24.28571 -28.57143,24.28571 -15.77957,0 -28.57143,-10.87308 -28.57143,-24.28571 0,-13.41263 12.79186,-24.28572 28.57143,-24.28572 15.77956,0 28.57143,10.87309 28.57143,24.28572 z"
         sodipodi:ry="24.285715"
         sodipodi:rx="28.571428"
         sodipodi:cy="488.07648"
         sodipodi:cx="-608.57141"
         id="path5055-79"
         style="fill:#f34e00;fill-opacity:0.59064331;stroke:#4e3400;stroke-width:4;stroke-linejoin:bevel;stroke-miterlimit:4;stroke-opacity:0.22807019;stroke-dasharray:none;stroke-dashoffset:0"
         sodipodi:type="arc" />
      <path
         transform="matrix(0.48330476,0,0,0.56859386,782.69689,271.98775)"
         d="m -579.99998,488.07648 c 0,13.41263 -12.79187,24.28571 -28.57143,24.28571 -15.77957,0 -28.57143,-10.87308 -28.57143,-24.28571 0,-13.41263 12.79186,-24.28572 28.57143,-24.28572 15.77956,0 28.57143,10.87309 28.57143,24.28572 z"
         sodipodi:ry="24.285715"
         sodipodi:rx="28.571428"
         sodipodi:cy="488.07648"
         sodipodi:cx="-608.57141"
         id="path5055-97"
         style="fill:#f34e00;fill-opacity:0.59064331;stroke:#4e3400;stroke-width:4;stroke-linejoin:bevel;stroke-miterlimit:4;stroke-opacity:0.22807019;stroke-dasharray:none;stroke-dashoffset:0"
         sodipodi:type="arc" />
      <path
         transform="matrix(0.48330476,0,0,0.56859386,722.69689,203.41632)"
         d="m -579.99998,488.07648 c 0,13.41263 -12.79187,24.28571 -28.57143,24.28571 -15.77957,0 -28.57143,-10.87308 -28.57143,-24.28571 0,-13.41263 12.79186,-24.28572 28.57143,-24.28572 15.77956,0 28.57143,10.87309 28.57143,24.28572 z"
         sodipodi:ry="24.285715"
         sodipodi:rx="28.571428"
         sodipodi:cy="488.07648"
         sodipodi:cx="-608.57141"
         id="path5055-69"
         style="fill:#f34e00;fill-opacity:0.59064331;stroke:#4e3400;stroke-width:4;stroke-linejoin:bevel;stroke-miterlimit:4;stroke-opacity:0.22807019;stroke-dasharray:none;stroke-dashoffset:0"
         sodipodi:type="arc" />
      <path
         transform="matrix(0.48330476,0,0,0.56859386,594.12546,237.70204)"
         d="m -579.99998,488.07648 c 0,13.41263 -12.79187,24.28571 -28.57143,24.28571 -15.77957,0 -28.57143,-10.87308 -28.57143,-24.28571 0,-13.41263 12.79186,-24.28572 28.57143,-24.28572 15.77956,0 28.57143,10.87309 28.57143,24.28572 z"
         sodipodi:ry="24.285715"
         sodipodi:rx="28.571428"
         sodipodi:cy="488.07648"
         sodipodi:cx="-608.57141"
         id="path5055-35"
         style="fill:#f34e00;fill-opacity:0.59064331;stroke:#4e3400;stroke-width:4;stroke-linejoin:bevel;stroke-miterlimit:4;stroke-opacity:0.22807019;stroke-dasharray:none;stroke-dashoffset:0"
         sodipodi:type="arc" />
      <path
         transform="matrix(0.48330476,0,0,0.56859386,539.83975,266.27347)"
         d="m -579.99998,488.07648 c 0,13.41263 -12.79187,24.28571 -28.57143,24.28571 -15.77957,0 -28.57143,-10.87308 -28.57143,-24.28571 0,-13.41263 12.79186,-24.28572 28.57143,-24.28572 15.77956,0 28.57143,10.87309 28.57143,24.28572 z"
         sodipodi:ry="24.285715"
         sodipodi:rx="28.571428"
         sodipodi:cy="488.07648"
         sodipodi:cx="-608.57141"
         id="path5055-766"
         style="fill:#f34e00;fill-opacity:0.59064331;stroke:#4e3400;stroke-width:4;stroke-linejoin:bevel;stroke-miterlimit:4;stroke-opacity:0.22807019;stroke-dasharray:none;stroke-dashoffset:0"
         sodipodi:type="arc" />
      <path
         transform="matrix(0.48330476,0,0,0.56859386,476.9826,203.41632)"
         d="m -579.99998,488.07648 c 0,13.41263 -12.79187,24.28571 -28.57143,24.28571 -15.77957,0 -28.57143,-10.87308 -28.57143,-24.28571 0,-13.41263 12.79186,-24.28572 28.57143,-24.28572 15.77956,0 28.57143,10.87309 28.57143,24.28572 z"
         sodipodi:ry="24.285715"
         sodipodi:rx="28.571428"
         sodipodi:cy="488.07648"
         sodipodi:cx="-608.57141"
         id="path5055-582"
         style="fill:#f34e00;fill-opacity:0.59064331;stroke:#4e3400;stroke-width:4;stroke-linejoin:bevel;stroke-miterlimit:4;stroke-opacity:0.22807019;stroke-dasharray:none;stroke-dashoffset:0"
         sodipodi:type="arc" />
      <path
         transform="matrix(0.48330476,0,0,0.56859386,494.12546,160.55918)"
         d="m -579.99998,488.07648 c 0,13.41263 -12.79187,24.28571 -28.57143,24.28571 -15.77957,0 -28.57143,-10.87308 -28.57143,-24.28571 0,-13.41263 12.79186,-24.28572 28.57143,-24.28572 15.77956,0 28.57143,10.87309 28.57143,24.28572 z"
         sodipodi:ry="24.285715"
         sodipodi:rx="28.571428"
         sodipodi:cy="488.07648"
         sodipodi:cx="-608.57141"
         id="path5055-54"
         style="fill:#f34e00;fill-opacity:0.59064331;stroke:#4e3400;stroke-width:4;stroke-linejoin:bevel;stroke-miterlimit:4;stroke-opacity:0.22807019;stroke-dasharray:none;stroke-dashoffset:0"
         sodipodi:type="arc" />
      <path
         transform="matrix(0.48330476,0,0,0.56859386,534.12546,109.13061)"
         d="m -579.99998,488.07648 c 0,13.41263 -12.79187,24.28571 -28.57143,24.28571 -15.77957,0 -28.57143,-10.87308 -28.57143,-24.28571 0,-13.41263 12.79186,-24.28572 28.57143,-24.28572 15.77956,0 28.57143,10.87309 28.57143,24.28572 z"
         sodipodi:ry="24.285715"
         sodipodi:rx="28.571428"
         sodipodi:cy="488.07648"
         sodipodi:cx="-608.57141"
         id="path5055-41"
         style="fill:#f34e00;fill-opacity:0.59064331;stroke:#4e3400;stroke-width:4;stroke-linejoin:bevel;stroke-miterlimit:4;stroke-opacity:0.22807019;stroke-dasharray:none;stroke-dashoffset:0"
         sodipodi:type="arc" />
      <path
         transform="matrix(0.48330476,0,0,0.56859386,525.55403,189.13061)"
         d="m -579.99998,488.07648 c 0,13.41263 -12.79187,24.28571 -28.57143,24.28571 -15.77957,0 -28.57143,-10.87308 -28.57143,-24.28571 0,-13.41263 12.79186,-24.28572 28.57143,-24.28572 15.77956,0 28.57143,10.87309 28.57143,24.28572 z"
         sodipodi:ry="24.285715"
         sodipodi:rx="28.571428"
         sodipodi:cy="488.07648"
         sodipodi:cx="-608.57141"
         id="path5055-616"
         style="fill:#f34e00;fill-opacity:0.59064331;stroke:#4e3400;stroke-width:4;stroke-linejoin:bevel;stroke-miterlimit:4;stroke-opacity:0.22807019;stroke-dasharray:none;stroke-dashoffset:0"
         sodipodi:type="arc" />
      <path
         transform="matrix(0.48330476,0,0,0.56859386,471.26832,223.41632)"
         d="m -579.99998,488.07648 c 0,13.41263 -12.79187,24.28571 -28.57143,24.28571 -15.77957,0 -28.57143,-10.87308 -28.57143,-24.28571 0,-13.41263 12.79186,-24.28572 28.57143,-24.28572 15.77956,0 28.57143,10.87309 28.57143,24.28572 z"
         sodipodi:ry="24.285715"
         sodipodi:rx="28.571428"
         sodipodi:cy="488.07648"
         sodipodi:cx="-608.57141"
         id="path5055-335"
         style="fill:#f34e00;fill-opacity:0.59064331;stroke:#4e3400;stroke-width:4;stroke-linejoin:bevel;stroke-miterlimit:4;stroke-opacity:0.22807019;stroke-dasharray:none;stroke-dashoffset:0"
         sodipodi:type="arc" />
      <path
         transform="matrix(0.48330476,0,0,0.56859386,474.12546,260.55918)"
         d="m -579.99998,488.07648 c 0,13.41263 -12.79187,24.28571 -28.57143,24.28571 -15.77957,0 -28.57143,-10.87308 -28.57143,-24.28571 0,-13.41263 12.79186,-24.28572 28.57143,-24.28572 15.77956,0 28.57143,10.87309 28.57143,24.28572 z"
         sodipodi:ry="24.285715"
         sodipodi:rx="28.571428"
         sodipodi:cy="488.07648"
         sodipodi:cx="-608.57141"
         id="path5055-532"
         style="fill:#f34e00;fill-opacity:0.59064331;stroke:#4e3400;stroke-width:4;stroke-linejoin:bevel;stroke-miterlimit:4;stroke-opacity:0.22807019;stroke-dasharray:none;stroke-dashoffset:0"
         sodipodi:type="arc" />
      <path
         transform="matrix(0.48330476,0,0,0.56859386,662.69689,203.41632)"
         d="m -579.99998,488.07648 c 0,13.41263 -12.79187,24.28571 -28.57143,24.28571 -15.77957,0 -28.57143,-10.87308 -28.57143,-24.28571 0,-13.41263 12.79186,-24.28572 28.57143,-24.28572 15.77956,0 28.57143,10.87309 28.57143,24.28572 z"
         sodipodi:ry="24.285715"
         sodipodi:rx="28.571428"
         sodipodi:cy="488.07648"
         sodipodi:cx="-608.57141"
         id="path5055-825"
         style="fill:#f34e00;fill-opacity:0.59064331;stroke:#4e3400;stroke-width:4;stroke-linejoin:bevel;stroke-miterlimit:4;stroke-opacity:0.22807019;stroke-dasharray:none;stroke-dashoffset:0"
         sodipodi:type="arc" />
      <path
         transform="matrix(0.48330476,0,0,0.56859386,671.26832,94.844895)"
         d="m -579.99998,488.07648 c 0,13.41263 -12.79187,24.28571 -28.57143,24.28571 -15.77957,0 -28.57143,-10.87308 -28.57143,-24.28571 0,-13.41263 12.79186,-24.28572 28.57143,-24.28572 15.77956,0 28.57143,10.87309 28.57143,24.28572 z"
         sodipodi:ry="24.285715"
         sodipodi:rx="28.571428"
         sodipodi:cy="488.07648"
         sodipodi:cx="-608.57141"
         id="path5055-36"
         style="fill:#f34e00;fill-opacity:0.59064331;stroke:#4e3400;stroke-width:4;stroke-linejoin:bevel;stroke-miterlimit:4;stroke-opacity:0.22807019;stroke-dasharray:none;stroke-dashoffset:0"
         sodipodi:type="arc" />
      <path
         transform="matrix(0.48330476,0,0,0.56859386,705.55403,49.130609)"
         d="m -579.99998,488.07648 c 0,13.41263 -12.79187,24.28571 -28.57143,24.28571 -15.77957,0 -28.57143,-10.87308 -28.57143,-24.28571 0,-13.41263 12.79186,-24.28572 28.57143,-24.28572 15.77956,0 28.57143,10.87309 28.57143,24.28572 z"
         sodipodi:ry="24.285715"
         sodipodi:rx="28.571428"
         sodipodi:cy="488.07648"
         sodipodi:cx="-608.57141"
         id="path5055-18"
         style="fill:#f34e00;fill-opacity:0.59064331;stroke:#4e3400;stroke-width:4;stroke-linejoin:bevel;stroke-miterlimit:4;stroke-opacity:0.22807019;stroke-dasharray:none;stroke-dashoffset:0"
         sodipodi:type="arc" />
      <path
         transform="matrix(0.48330476,0,0,0.56859386,719.83975,31.987752)"
         d="m -579.99998,488.07648 c 0,13.41263 -12.79187,24.28571 -28.57143,24.28571 -15.77957,0 -28.57143,-10.87308 -28.57143,-24.28571 0,-13.41263 12.79186,-24.28572 28.57143,-24.28572 15.77956,0 28.57143,10.87309 28.57143,24.28572 z"
         sodipodi:ry="24.285715"
         sodipodi:rx="28.571428"
         sodipodi:cy="488.07648"
         sodipodi:cx="-608.57141"
         id="path5055-621"
         style="fill:#f34e00;fill-opacity:0.59064331;stroke:#4e3400;stroke-width:4;stroke-linejoin:bevel;stroke-miterlimit:4;stroke-opacity:0.22807019;stroke-dasharray:none;stroke-dashoffset:0"
         sodipodi:type="arc" />
    </g>
  </g>
</svg>
